<svg width="28" height="28" viewBox="0 0 28 28" fill="none" xmlns="http://www.w3.org/2000/svg">
<g id="Outline / Essentional, UI / Home ">
<g id="Vector">
<path d="M10.5002 20.125C10.0169 20.125 9.62516 20.5168 9.62516 21C9.62516 21.4833 10.0169 21.875 10.5002 21.875H17.5002C17.9834 21.875 18.3752 21.4833 18.3752 21C18.3752 20.5168 17.9834 20.125 17.5002 20.125H10.5002Z" fill="#3D4057"/>
<path fill-rule="evenodd" clip-rule="evenodd" d="M14.0002 1.45834C13.174 1.45834 12.4234 1.69497 11.6091 2.09096C10.822 2.47375 9.91265 3.03811 8.77683 3.74305L6.36583 5.23939C5.2911 5.90639 4.43051 6.44048 3.76721 6.94845C3.08034 7.47448 2.55277 8.01022 2.17169 8.70641C1.79141 9.40115 1.62016 10.1404 1.53805 11.0142C1.45848 11.861 1.45849 12.8965 1.4585 14.1951V16.0765C1.45848 18.2977 1.45847 20.051 1.63665 21.4219C1.81943 22.8281 2.20349 23.9634 3.07125 24.861C3.94301 25.7628 5.05236 26.1656 6.4257 26.3566C7.75673 26.5417 9.45665 26.5417 11.599 26.5417H16.4013C18.5436 26.5417 20.2436 26.5417 21.5746 26.3566C22.948 26.1656 24.0573 25.7628 24.9291 24.861C25.7968 23.9634 26.1809 22.8281 26.3637 21.4219C26.5419 20.051 26.5418 18.2977 26.5418 16.0765V14.1951C26.5418 12.8965 26.5418 11.861 26.4623 11.0142C26.3802 10.1404 26.2089 9.40115 25.8286 8.70641C25.4476 8.01022 24.92 7.47448 24.2331 6.94845C23.5698 6.44048 22.7093 5.9064 21.6345 5.23941L19.2235 3.74304C18.0877 3.03811 17.1783 2.47374 16.3912 2.09096C15.5769 1.69497 14.8263 1.45834 14.0002 1.45834ZM9.65961 5.25482C10.8447 4.51934 11.6779 4.00347 12.3745 3.66474C13.0531 3.33472 13.5337 3.20834 14.0002 3.20834C14.4666 3.20834 14.9472 3.33472 15.6259 3.66474C16.3224 4.00347 17.1557 4.51934 18.3407 5.25481L20.674 6.70295C21.795 7.39865 22.5821 7.88825 23.1691 8.33783C23.7403 8.77526 24.0689 9.13624 24.2936 9.54667C24.519 9.95855 24.6506 10.4401 24.72 11.1779C24.7909 11.9334 24.7918 12.8868 24.7918 14.2379V16.0125C24.7918 18.3119 24.7901 19.9514 24.6283 21.1963C24.4693 22.4191 24.17 23.1284 23.6709 23.6447C23.1758 24.1568 22.5018 24.4608 21.3336 24.6233C20.137 24.7897 18.5589 24.7917 16.3335 24.7917H11.6668C9.44138 24.7917 7.8633 24.7897 6.66675 24.6233C5.4985 24.4608 4.82449 24.1568 4.32942 23.6447C3.83034 23.1284 3.53098 22.4191 3.37205 21.1963C3.21024 19.9514 3.2085 18.3119 3.2085 16.0125V14.2379C3.2085 12.8868 3.20939 11.9334 3.28038 11.1779C3.3497 10.4401 3.48132 9.95855 3.70677 9.54667C3.93143 9.13624 4.26004 8.77526 4.83123 8.33783C5.41828 7.88825 6.20531 7.39865 7.32628 6.70295L9.65961 5.25482Z" fill="#3D4057"/>
</g>
</g>
</svg>
