<svg width="28" height="28" viewBox="0 0 28 28" fill="none" xmlns="http://www.w3.org/2000/svg">
<g id="Outline / Business, Statistic / Pie Chart 2">
<g id="Vector">
<path fill-rule="evenodd" clip-rule="evenodd" d="M20.0737 2.16554C18.8338 1.67708 17.6355 2.00774 16.7873 2.76211C15.96 3.49793 15.4585 4.63153 15.4585 5.83335V10.5C15.4585 11.6276 16.3726 12.5417 17.5002 12.5417H22.1668C23.3687 12.5417 24.5023 12.0402 25.2381 11.2129C25.9924 10.3647 26.3231 9.16638 25.8346 7.92646C24.7986 5.29656 22.7036 3.20159 20.0737 2.16554ZM17.2085 10.5V5.83335C17.2085 5.10218 17.5175 4.45467 17.9503 4.06976C18.3623 3.7034 18.8737 3.57371 19.4323 3.79375C21.6107 4.65192 23.3483 6.38951 24.2064 8.56789C24.4265 9.12645 24.2968 9.63793 23.9304 10.0499C23.5455 10.4826 22.898 10.7917 22.1668 10.7917H17.5002C17.3391 10.7917 17.2085 10.6611 17.2085 10.5Z" fill="#3D4057"/>
<path fill-rule="evenodd" clip-rule="evenodd" d="M12.828 3.34828C12.1157 2.88684 11.4267 2.75399 10.6701 2.88591C10.0277 2.99794 9.33995 3.30613 8.60801 3.63415L8.52915 3.66948C7.92032 3.94213 7.33274 4.26644 6.77314 4.64035C4.8066 5.95435 3.27387 7.82199 2.36878 10.0071C1.46368 12.1922 1.22686 14.5966 1.68828 16.9163C2.14969 19.236 3.28861 21.3668 4.96102 23.0392C6.63342 24.7116 8.76419 25.8505 11.0839 26.3119C13.4036 26.7733 15.808 26.5365 17.9931 25.6314C20.1782 24.7263 22.0458 23.1936 23.3598 21.227C23.7337 20.6674 24.058 20.0799 24.3307 19.471L24.366 19.3921C24.694 18.6602 25.0022 17.9725 25.1143 17.33C25.2462 16.5735 25.1133 15.8845 24.6519 15.1722C24.1544 14.4044 23.4733 14.0291 22.6404 13.8591C21.9009 13.7081 20.9768 13.7082 19.9177 13.7083L18.0835 13.7083C16.9588 13.7083 16.2033 13.7065 15.6398 13.6307C15.1014 13.5583 14.871 13.4332 14.719 13.2812C14.5669 13.1292 14.4418 12.8988 14.3695 12.3604C14.2937 11.7968 14.2918 11.0414 14.2918 9.91668L14.2918 8.08247C14.2919 7.02335 14.292 6.09926 14.1411 5.35973C13.9711 4.52684 13.5958 3.84576 12.828 3.34828ZM9.24441 5.26663C10.0835 4.89087 10.5698 4.67981 10.9708 4.6099C11.2806 4.55587 11.5241 4.5887 11.8764 4.81699C12.1732 5.00926 12.3303 5.23876 12.4264 5.70974C12.5376 6.25454 12.5418 6.99819 12.5418 8.16668L12.5418 9.97733C12.5418 11.0255 12.5418 11.8997 12.6351 12.5936C12.7335 13.326 12.9502 13.9873 13.4815 14.5186C14.0129 15.05 14.6742 15.2666 15.4066 15.3651C16.1005 15.4584 16.9746 15.4584 18.0228 15.4583L19.8335 15.4583C21.002 15.4583 21.7456 15.4625 22.2904 15.5737C22.7614 15.6699 22.9909 15.827 23.1832 16.1237C23.4115 16.4761 23.4443 16.7196 23.3903 17.0294C23.3204 17.4303 23.1093 17.9167 22.7335 18.7558C22.5008 19.2755 22.224 19.7771 21.9048 20.2548C20.783 21.9335 19.1887 23.242 17.3234 24.0146C15.4581 24.7873 13.4055 24.9894 11.4253 24.5955C9.44507 24.2016 7.62611 23.2294 6.19845 21.8017C4.77079 20.3741 3.79854 18.5551 3.40465 16.5749C3.01076 14.5947 3.21292 12.5421 3.98556 10.6768C4.75821 8.81145 6.06664 7.21713 7.74539 6.09542C8.22311 5.77622 8.7247 5.49938 9.24441 5.26663Z" fill="#3D4057"/>
</g>
</g>
</svg>
