<svg width="28" height="28" viewBox="0 0 28 28" fill="none" xmlns="http://www.w3.org/2000/svg">
<g id="Outline / Users / Users Group Rounded">
<g id="Vector">
<path fill-rule="evenodd" clip-rule="evenodd" d="M10.5002 1.45834C7.43958 1.45834 4.9585 3.93943 4.9585 7.00001C4.9585 10.0606 7.43958 12.5417 10.5002 12.5417C13.5607 12.5417 16.0418 10.0606 16.0418 7.00001C16.0418 3.93943 13.5607 1.45834 10.5002 1.45834ZM6.7085 7.00001C6.7085 4.90593 8.40608 3.20834 10.5002 3.20834C12.5942 3.20834 14.2918 4.90593 14.2918 7.00001C14.2918 9.09409 12.5942 10.7917 10.5002 10.7917C8.40608 10.7917 6.7085 9.09409 6.7085 7.00001Z" fill="#3D4057"/>
<path d="M17.5002 2.62501C17.0169 2.62501 16.6252 3.01676 16.6252 3.50001C16.6252 3.98326 17.0169 4.37501 17.5002 4.37501C18.9499 4.37501 20.1252 5.55026 20.1252 7.00001C20.1252 8.44976 18.9499 9.62501 17.5002 9.62501C17.0169 9.62501 16.6252 10.0168 16.6252 10.5C16.6252 10.9833 17.0169 11.375 17.5002 11.375C19.9164 11.375 21.8752 9.41626 21.8752 7.00001C21.8752 4.58376 19.9164 2.62501 17.5002 2.62501Z" fill="#3D4057"/>
<path fill-rule="evenodd" clip-rule="evenodd" d="M4.29134 15.7738C5.92393 14.8409 8.12094 14.2917 10.5002 14.2917C12.8794 14.2917 15.0764 14.8409 16.709 15.7738C18.3168 16.6926 19.5418 18.0952 19.5418 19.8333C19.5418 21.5715 18.3168 22.9741 16.709 23.8929C15.0764 24.8258 12.8794 25.375 10.5002 25.375C8.12094 25.375 5.92393 24.8258 4.29134 23.8929C2.68349 22.9741 1.4585 21.5715 1.4585 19.8333C1.4585 18.0952 2.68349 16.6926 4.29134 15.7738ZM5.15958 17.2932C3.81167 18.0635 3.2085 18.9942 3.2085 19.8333C3.2085 20.6725 3.81167 21.6032 5.15958 22.3735C6.48273 23.1296 8.36906 23.625 10.5002 23.625C12.6313 23.625 14.5176 23.1296 15.8407 22.3735C17.1887 21.6032 17.7918 20.6725 17.7918 19.8333C17.7918 18.9942 17.1887 18.0635 15.8407 17.2932C14.5176 16.5371 12.6313 16.0417 10.5002 16.0417C8.36906 16.0417 6.48273 16.5371 5.15958 17.2932Z" fill="#3D4057"/>
<path d="M21.1876 15.4787C20.7156 15.3751 20.249 15.6739 20.1455 16.1459C20.042 16.6179 20.3407 17.0845 20.8127 17.188C21.7372 17.3908 22.4759 17.739 22.9635 18.1379C23.4518 18.5375 23.6252 18.9277 23.6252 19.25C23.6252 19.5425 23.4844 19.8859 23.0966 20.2462C22.7058 20.6092 22.1055 20.9445 21.3312 21.1777C20.8685 21.317 20.6063 21.8051 20.7457 22.2678C20.885 22.7305 21.373 22.9927 21.8358 22.8534C22.7954 22.5644 23.6535 22.1174 24.2876 21.5284C24.9245 20.9367 25.3752 20.1584 25.3752 19.25C25.3752 18.2411 24.8219 17.3974 24.0718 16.7836C23.321 16.1693 22.3098 15.7247 21.1876 15.4787Z" fill="#3D4057"/>
</g>
</g>
</svg>
