<svg width="47" height="47" viewBox="0 0 47 47" fill="none" xmlns="http://www.w3.org/2000/svg">
<g id="Bold Duotone / Business, Statistic / Chart 2">
<path id="Vector" d="M6.44858 18.1986C5.875 18.7722 5.875 19.6953 5.875 21.5417V33.2917C5.875 35.138 5.875 36.0612 6.44858 36.6348C7.02217 37.2083 7.94533 37.2083 9.79167 37.2083C11.638 37.2083 12.5612 37.2083 13.1347 36.6348C13.7083 36.0612 13.7083 35.138 13.7083 33.2917V21.5417C13.7083 19.6953 13.7083 18.7722 13.1347 18.1986C12.5612 17.625 11.638 17.625 9.79167 17.625C7.94533 17.625 7.02217 17.625 6.44858 18.1986Z" fill="#9B52DC"/>
<path id="Vector_2" opacity="0.4" d="M33.8651 4.49033C33.2915 5.06391 33.2915 5.98708 33.2915 7.83341V33.2917C33.2915 35.1381 33.2915 36.0613 33.8651 36.6348C34.4387 37.2084 35.3618 37.2084 37.2082 37.2084C39.0545 37.2084 39.9777 37.2084 40.5513 36.6348C41.1248 36.0613 41.1248 35.1381 41.1248 33.2917V7.83341C41.1248 5.98708 41.1248 5.06391 40.5513 4.49033C39.9777 3.91675 39.0545 3.91675 37.2082 3.91675C35.3618 3.91675 34.4387 3.91675 33.8651 4.49033Z" fill="#9B52DC"/>
<path id="Vector_3" opacity="0.7" d="M19.5835 13.7084C19.5835 11.8621 19.5835 10.9389 20.1571 10.3653C20.7307 9.79175 21.6538 9.79175 23.5002 9.79175C25.3465 9.79175 26.2697 9.79175 26.8432 10.3653C27.4168 10.9389 27.4168 11.8621 27.4168 13.7084V33.2917C27.4168 35.1381 27.4168 36.0612 26.8432 36.6348C26.2697 37.2084 25.3465 37.2084 23.5002 37.2084C21.6538 37.2084 20.7307 37.2084 20.1571 36.6348C19.5835 36.0612 19.5835 35.1381 19.5835 33.2917V13.7084Z" fill="#9B52DC"/>
<path id="Vector_4" d="M5.875 41.6145C5.06383 41.6145 4.40625 42.2721 4.40625 43.0833C4.40625 43.8944 5.06383 44.552 5.875 44.552H41.125C41.9362 44.552 42.5938 43.8944 42.5938 43.0833C42.5938 42.2721 41.9362 41.6145 41.125 41.6145H5.875Z" fill="#9B52DC"/>
</g>
</svg>
