<svg width="47" height="47" viewBox="0 0 47 47" fill="none" xmlns="http://www.w3.org/2000/svg">
<g id="Bold Duotone / Essentional, UI / Crown ">
<path id="Vector" opacity="0.5" fill-rule="evenodd" clip-rule="evenodd" d="M38.5543 27.599L38.9133 24.2607C39.1049 22.4795 39.2314 21.3034 39.1321 20.5623C38.2575 20.5522 37.4747 20.1598 36.9431 19.5444C36.3046 19.9385 35.4698 20.7701 34.2132 22.0218C33.2452 22.986 32.7612 23.4682 32.2212 23.5428C31.922 23.5842 31.6172 23.5417 31.3409 23.42C30.8423 23.2005 30.5099 22.6044 29.845 21.4124L26.3406 15.1289C25.9304 14.3935 25.5872 13.7781 25.2777 13.2827C24.7442 13.5549 24.1401 13.7084 23.5002 13.7084C22.8602 13.7084 22.2561 13.5549 21.7226 13.2827C21.4131 13.7781 21.0699 14.3935 20.6597 15.1289L17.1553 21.4124C16.4904 22.6044 16.158 23.2005 15.6594 23.42C15.3831 23.5417 15.0783 23.5842 14.7791 23.5428C14.2392 23.4682 13.7551 22.986 12.7871 22.0218C11.5305 20.7701 10.6957 19.9385 10.0572 19.5444C9.5256 20.1598 8.74283 20.5522 7.86818 20.5623C7.7689 21.3034 7.89541 22.4795 8.08699 24.2607L8.44607 27.599C8.50668 28.1626 8.5642 28.7178 8.6206 29.2623C9.11468 34.0325 9.52337 37.9782 11.1863 39.4666C13.0391 41.125 15.8159 41.125 21.3696 41.125H25.6307C31.1844 41.125 33.9612 41.125 35.814 39.4666C37.4769 37.9782 37.8856 34.0325 38.3797 29.2624C38.4361 28.7179 38.4936 28.1626 38.5543 27.599Z" fill="#9B52DC"/>
<g id="Vector_2">
<path d="M39.1668 20.5625C40.7892 20.5625 42.1043 19.2473 42.1043 17.625C42.1043 16.0027 40.7892 14.6875 39.1668 14.6875C37.5445 14.6875 36.2293 16.0027 36.2293 17.625C36.2293 18.3587 36.4983 19.0296 36.9431 19.5444C37.4747 20.1598 38.2575 20.5522 39.1321 20.5623L39.1668 20.5625Z" fill="#9B52DC"/>
<path d="M23.5002 5.875C21.337 5.875 19.5835 7.62855 19.5835 9.79167C19.5835 11.3148 20.453 12.6349 21.7226 13.2827C22.2561 13.5549 22.8602 13.7083 23.5002 13.7083C24.1401 13.7083 24.7442 13.5549 25.2777 13.2827C26.5474 12.6349 27.4168 11.3148 27.4168 9.79167C27.4168 7.62855 25.6633 5.875 23.5002 5.875Z" fill="#9B52DC"/>
<path d="M4.896 17.625C4.896 19.2473 6.21116 20.5625 7.8335 20.5625L7.86818 20.5623C8.74283 20.5522 9.5256 20.1598 10.0572 19.5444C10.502 19.0296 10.771 18.3587 10.771 17.625C10.771 16.0027 9.45583 14.6875 7.8335 14.6875C6.21116 14.6875 4.896 16.0027 4.896 17.625Z" fill="#9B52DC"/>
</g>
<path id="Vector_3" d="M9.49583 35.7395C9.30394 34.8576 9.1505 33.8697 9.01392 32.802H37.986C37.8494 33.8697 37.696 34.8576 37.5041 35.7395H9.49583Z" fill="#9B52DC"/>
</g>
</svg>
