<svg width="47" height="47" viewBox="0 0 47 47" fill="none" xmlns="http://www.w3.org/2000/svg">
<g id="Bold Duotone / Essentional, UI / Cup Star">
<path id="Vector" opacity="0.5" d="M23.5002 31.3334C12.2203 31.3334 10.2221 20.0917 9.86808 11.1753C9.76961 8.69503 9.72037 7.45493 10.652 6.30755C11.5836 5.16016 12.6986 4.97204 14.9286 4.59578C17.1299 4.22438 20.0074 3.91675 23.5002 3.91675C26.993 3.91675 29.8705 4.22438 32.0718 4.59579C34.3018 4.97204 35.4168 5.16016 36.3484 6.30755C37.28 7.45493 37.2308 8.69503 37.1323 11.1753C36.7783 20.0917 34.7801 31.3334 23.5002 31.3334Z" fill="#9B52DC"/>
<g id="Vector_2">
<path d="M34.5455 24.3265L40.0613 21.2622C41.5347 20.4436 42.2715 20.0342 42.6772 19.3447C43.083 18.6551 43.083 17.8123 43.0831 16.1267L43.0831 15.9847C43.0831 13.9409 43.0831 12.9191 42.5287 12.1497C41.9742 11.3804 41.0048 11.0573 39.0659 10.411L37.2082 9.79175L37.175 9.9575C37.1659 10.3282 37.1499 10.7319 37.1323 11.1752C36.9593 15.5313 36.3939 20.4424 34.5455 24.3265Z" fill="#9B52DC"/>
<path d="M9.86802 11.1753C10.041 15.5316 10.6064 20.4429 12.455 24.3271L6.93831 21.2622C5.46482 20.4436 4.72807 20.0342 4.32233 19.3447C3.91658 18.6551 3.91656 17.8123 3.91651 16.1267L3.9165 15.9847C3.91645 13.9409 3.91643 12.9191 4.4709 12.1497C5.02538 11.3804 5.99481 11.0573 7.93367 10.411L9.79139 9.79175L9.82535 9.96155C9.8345 10.3311 9.85048 10.7335 9.86802 11.1753Z" fill="#9B52DC"/>
</g>
<path id="Vector_3" fill-rule="evenodd" clip-rule="evenodd" d="M10.2812 43.0833C10.2812 42.2721 10.9388 41.6145 11.75 41.6145H35.25C36.0612 41.6145 36.7187 42.2721 36.7187 43.0833C36.7187 43.8944 36.0612 44.552 35.25 44.552H11.75C10.9388 44.552 10.2812 43.8944 10.2812 43.0833Z" fill="#9B52DC"/>
<path id="Vector_4" opacity="0.5" d="M30.2712 41.6147H16.729L17.3103 38.1879C17.4933 37.2725 18.2971 36.6136 19.2306 36.6136H27.7697C28.7032 36.6136 29.5069 37.2725 29.69 38.1879L30.2712 41.6147Z" fill="#9B52DC"/>
<path id="Vector_5" d="M23.5003 31.3337C22.992 31.3337 22.5026 31.3109 22.0312 31.2665V36.6136H24.9688V31.2665C24.4976 31.3109 24.0084 31.3337 23.5003 31.3337Z" fill="#9B52DC"/>
<path id="Vector_6" d="M21.8275 11.7942C22.5716 10.4592 22.9437 9.79175 23.5 9.79175C24.0563 9.79175 24.4284 10.4592 25.1725 11.7942L25.365 12.1395C25.5765 12.5189 25.6822 12.7086 25.8471 12.8337C26.012 12.9589 26.2173 13.0053 26.6279 13.0982L27.0018 13.1828C28.4468 13.5098 29.1694 13.6733 29.3413 14.226C29.5132 14.7788 29.0206 15.3548 28.0354 16.5068L27.7806 16.8049C27.5006 17.1322 27.3607 17.2959 27.2977 17.4984C27.2347 17.7009 27.2559 17.9193 27.2982 18.3561L27.3367 18.7537C27.4857 20.2907 27.5601 21.0592 27.1101 21.4009C26.6601 21.7425 25.9836 21.431 24.6305 20.8081L24.2805 20.6469C23.896 20.4699 23.7038 20.3813 23.5 20.3813C23.2962 20.3813 23.104 20.4699 22.7195 20.6469L22.3695 20.8081C21.0164 21.431 20.3399 21.7425 19.8899 21.4009C19.4399 21.0592 19.5143 20.2907 19.6633 18.7537L19.7018 18.3561C19.7441 17.9193 19.7653 17.7009 19.7023 17.4984C19.6393 17.2959 19.4994 17.1322 19.2194 16.8049L18.9646 16.5068C17.9794 15.3548 17.4868 14.7788 17.6587 14.226C17.8306 13.6733 18.5532 13.5098 19.9982 13.1828L20.3721 13.0982C20.7827 13.0053 20.988 12.9589 21.1529 12.8337C21.3178 12.7086 21.4235 12.5189 21.635 12.1395L21.8275 11.7942Z" fill="#9B52DC"/>
</g>
</svg>
