<svg width="47" height="47" viewBox="0 0 47 47" fill="none" xmlns="http://www.w3.org/2000/svg">
<g id="Bold Duotone / Essentional, UI / Flag">
<path id="Vector" opacity="0.5" fill-rule="evenodd" clip-rule="evenodd" d="M12.729 3.427C12.729 2.61583 12.0714 1.95825 11.2603 1.95825C10.4491 1.95825 9.7915 2.61583 9.7915 3.427V42.5937C9.7915 43.4048 10.4491 44.0624 11.2603 44.0624C12.0714 44.0624 12.729 43.4048 12.729 42.5937V26.6333V7.04992V3.427Z" fill="#9B52DC"/>
<path id="Vector_2" d="M26.1408 7.42102L25.742 7.26151C22.6815 6.03729 19.3309 5.72967 16.0987 6.37613L12.729 7.05006V26.6334L16.0987 25.9595C19.3309 25.313 22.6815 25.6206 25.742 26.8448C29.0585 28.1714 32.7088 28.4192 36.1741 27.5528L36.5941 27.4478C37.8182 27.1418 38.6769 26.042 38.6769 24.7802V10.3532C38.6769 8.82456 37.2404 7.70294 35.7574 8.07368C32.563 8.8723 29.1981 8.64393 26.1408 7.42102Z" fill="#9B52DC"/>
</g>
</svg>
