<svg width="47" height="47" viewBox="0 0 47 47" fill="none" xmlns="http://www.w3.org/2000/svg">
<g id="Bold Duotone / Weather / Moon Stars">
<g id="Vector">
<path d="M38.9712 4.51833C38.656 3.71622 37.525 3.71622 37.2099 4.51833L36.367 6.66326C36.2708 6.90815 36.0777 7.10199 35.8337 7.19858L33.6966 8.04453C32.8975 8.36087 32.8975 9.49605 33.6966 9.81239L35.8337 10.6583C36.0777 10.7549 36.2708 10.9488 36.367 11.1937L37.2099 13.3386C37.525 14.1407 38.656 14.1407 38.9712 13.3386L39.814 11.1937C39.9103 10.9488 40.1034 10.7549 40.3474 10.6583L42.4844 9.81239C43.2836 9.49605 43.2836 8.36087 42.4844 8.04453L40.3474 7.19858C40.1034 7.10199 39.9103 6.90815 39.814 6.66326L38.9712 4.51833Z" fill="url(#paint0_linear_7291_693)"/>
<path d="M31.3976 15.9207C31.0825 15.1186 29.9515 15.1186 29.6363 15.9207L29.329 16.7027C29.2328 16.9476 29.0396 17.1415 28.7956 17.2381L28.0165 17.5465C27.2173 17.8628 27.2173 18.998 28.0165 19.3144L28.7956 19.6228C29.0396 19.7194 29.2328 19.9132 29.329 20.1581L29.6363 20.9402C29.9515 21.7423 31.0825 21.7423 31.3976 20.9402L31.7049 20.1581C31.8012 19.9132 31.9943 19.7194 32.2383 19.6228L33.0175 19.3144C33.8166 18.998 33.8166 17.8628 33.0175 17.5465L32.2383 17.2381C31.9943 17.1415 31.8012 16.9476 31.7049 16.7027L31.3976 15.9207Z" fill="url(#paint1_linear_7291_693)"/>
</g>
<path id="Vector_2" opacity="0.5" d="M23.4998 43.0834C34.3154 43.0834 43.0832 34.3157 43.0832 23.5001C43.0832 22.594 41.7251 22.4442 41.2565 23.2197C39.0274 26.9088 34.9787 29.3751 30.354 29.3751C23.3239 29.3751 17.6248 23.676 17.6248 16.6459C17.6248 12.0212 20.0911 7.97256 23.7802 5.7434C24.5557 5.27479 24.4059 3.91675 23.4998 3.91675C12.6843 3.91675 3.9165 12.6845 3.9165 23.5001C3.9165 34.3157 12.6843 43.0834 23.4998 43.0834Z" fill="url(#paint2_linear_7291_693)"/>
</g>
<defs>
<linearGradient id="paint0_linear_7291_693" x1="52.2519" y1="-7.88434" x2="27.4557" y2="-7.08324" gradientUnits="userSpaceOnUse">
<stop stop-color="#FD85FF"/>
<stop offset="1" stop-color="#4E29BF"/>
</linearGradient>
<linearGradient id="paint1_linear_7291_693" x1="52.2519" y1="-7.88434" x2="27.4557" y2="-7.08324" gradientUnits="userSpaceOnUse">
<stop stop-color="#FD85FF"/>
<stop offset="1" stop-color="#4E29BF"/>
</linearGradient>
<linearGradient id="paint2_linear_7291_693" x1="-19.0046" y1="-22.3079" x2="42.9688" y2="-20.0554" gradientUnits="userSpaceOnUse">
<stop stop-color="#FD85FF"/>
<stop offset="1" stop-color="#4E29BF"/>
</linearGradient>
</defs>
</svg>
