<svg width="47" height="47" viewBox="0 0 47 47" fill="none" xmlns="http://www.w3.org/2000/svg">
<g id="Bold Duotone / Like / Star">
<path id="Vector" d="M36.1965 32.8361C34.9503 33.1339 33.6498 33.2917 32.3123 33.2917C23.1191 33.2917 15.6665 25.8391 15.6665 16.6458C15.6665 15.699 15.7456 14.7707 15.8974 13.8671C15.8265 13.9352 15.7533 13.998 15.6762 14.0566C15.1267 14.4737 14.4423 14.6286 13.0734 14.9383L11.8273 15.2202C7.01039 16.3101 4.60195 16.855 4.02895 18.6977C3.45595 20.5403 5.09787 22.4603 8.38169 26.3003L9.23126 27.2937C10.1644 28.3849 10.631 28.9306 10.8409 29.6055C11.0508 30.2805 10.9803 31.0085 10.8392 32.4644L10.7107 33.7899C10.2143 38.9133 9.96603 41.475 11.4662 42.6138C12.9663 43.7526 15.2213 42.7143 19.7313 40.6377L20.8982 40.1005C22.1798 39.5104 22.8206 39.2153 23.4998 39.2153C24.1791 39.2153 24.8199 39.5104 26.1015 40.1005L27.2683 40.6377C31.7783 42.7143 34.0334 43.7526 35.5335 42.6138C37.0336 41.475 36.7854 38.9133 36.2889 33.7899L36.1965 32.8361Z" fill="#9B52DC"/>
<path id="Vector_2" opacity="0.5" d="M17.9247 10.5915L17.283 11.7427C16.5781 13.0072 16.2257 13.6395 15.6761 14.0566C15.7533 13.9981 15.8265 13.9353 15.8974 13.8671C15.7455 14.7708 15.6665 15.6991 15.6665 16.6459C15.6665 25.8392 23.1191 33.2918 32.3123 33.2918C33.6497 33.2918 34.9503 33.134 36.1965 32.8362L36.1605 32.4645C36.0194 31.0086 35.9488 30.2806 36.1587 29.6056C36.3686 28.9306 36.8352 28.385 37.7684 27.2938L38.6179 26.3003C41.9018 22.4604 43.5437 20.5403 42.9707 18.6977C42.3977 16.8551 39.9892 16.3102 35.1724 15.2203L33.9262 14.9383C32.5574 14.6286 31.873 14.4738 31.3235 14.0566C30.7739 13.6395 30.4215 13.0072 29.7166 11.7427L29.0749 10.5915C26.5943 6.14166 25.3541 3.91675 23.4998 3.91675C21.6455 3.91675 20.4053 6.14166 17.9247 10.5915Z" fill="#9B52DC"/>
</g>
</svg>
