<svg width="47" height="47" viewBox="0 0 47 47" fill="none" xmlns="http://www.w3.org/2000/svg">
<g id="Bold Duotone / Astronomy / Star Fall 2">
<path id="Vector" d="M22.6779 9.35316C24.0384 5.88518 24.7187 4.15119 26.1413 3.93743C27.5639 3.72367 28.7868 5.1717 31.2325 8.06777L31.8652 8.81701C32.5602 9.63999 32.9077 10.0515 33.3802 10.2864C33.8527 10.5214 34.3966 10.5532 35.4846 10.6169L36.475 10.6749C40.3035 10.8989 42.2178 11.011 42.8821 12.2625C43.5464 13.5141 42.5208 15.0764 40.4696 18.2009L39.9389 19.0092C39.356 19.8971 39.0646 20.3411 38.9859 20.8479C38.9071 21.3548 39.05 21.8672 39.3358 22.8921L39.5959 23.8251C40.6016 27.4316 41.1044 29.2348 40.0923 30.2221C39.0802 31.2094 37.2235 30.7269 33.5101 29.7618L32.5494 29.5122C31.4942 29.2379 30.9666 29.1008 30.4454 29.1791C29.9243 29.2574 29.4687 29.5423 28.5573 30.112L27.7276 30.6307C24.5207 32.6355 22.9172 33.638 21.6274 32.9966C20.3376 32.3552 20.2157 30.4947 19.9719 26.7738L19.9088 25.8111C19.8395 24.7538 19.8048 24.2251 19.5615 23.7666C19.3182 23.3081 18.8937 22.9717 18.0447 22.299L17.2717 21.6865C14.2841 19.3191 12.7903 18.1355 13.0052 16.7518C13.2201 15.3681 15.0015 14.7007 18.5642 13.3661L19.4859 13.0208C20.4983 12.6416 21.0045 12.4519 21.3753 12.0903C21.746 11.7286 21.9393 11.2359 22.3259 10.2504L22.6779 9.35316Z" fill="#9B52DC"/>
<g id="Subtract" opacity="0.5">
<path d="M10.3986 18.785C5.62598 23.345 2.49673 30.9522 4.5652 43.0829C6.41149 37.9842 11.4703 33.7622 17.4529 31.2401C17.2441 30.0794 17.1515 28.6621 17.0539 27.1678L16.9775 26.0023C16.9597 25.7312 16.9462 25.5255 16.9317 25.3485C16.9257 25.275 16.9201 25.2134 16.9148 25.1615C16.8693 25.1226 16.8139 25.0763 16.7459 25.0206C16.604 24.9046 16.4376 24.7727 16.2203 24.6004L15.2897 23.8631C13.9324 22.7879 12.668 21.7863 11.7987 20.863C11.303 20.3365 10.7487 19.6421 10.3986 18.785Z" fill="#9B52DC"/>
<path d="M20.262 30.2028C20.2519 30.1295 20.2421 30.0548 20.2327 29.9785L20.3425 30.1772C20.3157 30.1857 20.2888 30.1942 20.262 30.2028Z" fill="#9B52DC"/>
</g>
</g>
</svg>
