<svg width="45" height="44" viewBox="0 0 45 44" fill="none" xmlns="http://www.w3.org/2000/svg">
<g id="Group 44">
<path id="BG Shape" d="M2.64296 14.8883C3.45632 8.38137 8.58157 3.25612 15.0885 2.44276C19.8112 1.85241 24.5891 1.85241 29.3119 2.44276C35.8188 3.25612 40.9441 8.38137 41.7574 14.8883C42.3478 19.611 42.3478 24.389 41.7574 29.1117C40.9441 35.6186 35.8188 40.7439 29.3119 41.5572C24.5891 42.1476 19.8112 42.1476 15.0885 41.5572C8.58157 40.7439 3.45632 35.6186 2.64296 29.1117C2.05261 24.3889 2.05261 19.6111 2.64296 14.8883Z" stroke="#3F3F3F" strokeWidth="4" strokeLinecap="round" strokeLinejoin="round"/>
<g id="Group 43">
<path id="Vector 63" d="M18.5549 21.8093C18.5549 21.8093 20.2246 19.5824 23.0085 19.0258C24.6962 18.6883 16.4193 33.6588 18.5549 33.5C20.6902 33.3411 23.5652 31.2732 23.5652 31.2732" stroke="#3F3F3F" strokeWidth="4" strokeLinecap="round" strokeLinejoin="round"/>
<circle id="Ellipse 75" cx="24.1215" cy="12.3453" r="3.8969" fill="#3F3F3F"/>
</g>
</g>
</svg>
