<svg width="32" height="11" viewBox="0 0 32 11" fill="none" xmlns="http://www.w3.org/2000/svg">
<g id="Amazon">
<path id="Smile" fill-rule="evenodd" clip-rule="evenodd" d="M19.7949 9.53591C20.0117 8.98541 20.4942 7.75173 20.2647 7.45278H20.2664C20.038 7.15319 18.7557 7.31041 18.1789 7.38113L18.1776 7.38128C18.0022 7.40282 17.9752 7.24688 18.1329 7.13402C19.1571 6.39916 20.835 6.60936 21.0299 6.85748C21.2248 7.10559 20.9768 8.82345 20.0176 9.6436C19.8699 9.76938 19.729 9.70219 19.7949 9.53591ZM12.9033 10.3854C15.1338 10.3854 17.7313 9.666 19.5206 8.31774V8.32032C19.8167 8.09288 19.5628 7.75862 19.2608 7.88957C17.3077 8.73086 15.2112 9.17001 13.0915 9.18183C10.1506 9.18183 7.30596 8.35823 5.00458 6.99101C4.80295 6.87126 4.65279 7.08233 4.82151 7.23654C7.0371 9.27794 9.91928 10.4009 12.9033 10.3854Z" fill="#FF9900"/>
<path id="Amazon_2" fill-rule="evenodd" clip-rule="evenodd" d="M27.4885 6.34835H28.4384H28.4393C28.5386 6.35026 28.6212 6.27054 28.6249 6.16911V3.48034C28.6249 3.14263 28.6426 2.83765 28.7759 2.53268C28.8674 2.30069 29.083 2.14449 29.3276 2.13294C29.9352 2.13294 29.9294 2.81289 29.9248 3.34707C29.9244 3.39212 29.924 3.43614 29.924 3.47862V6.19151C29.9358 6.27855 30.0068 6.34455 30.0928 6.34835H31.0511C31.142 6.35027 31.2202 6.28324 31.2342 6.19151V3.04786C31.2342 2.56456 31.2342 1.89172 30.9853 1.49198C30.7162 1.06122 30.2994 0.903564 29.8726 0.903564C29.2146 0.903564 28.8408 1.22922 28.5743 1.91239H28.5557V1.14823C28.5364 1.06835 28.4675 1.01131 28.387 1.00867H27.5029C27.4095 1.00632 27.3299 1.07748 27.3198 1.17236V6.16911C27.321 6.26492 27.3948 6.34332 27.4885 6.34835ZM26.5944 3.72762C26.5944 2.15106 25.8292 0.910482 24.4145 0.910482C23.036 0.910482 22.2709 2.13038 22.2709 3.67507C22.2709 5.21976 23.0268 6.46033 24.4145 6.46033C25.7508 6.46033 26.5944 5.25163 26.5944 3.72762ZM23.6764 3.51742C23.6764 2.90747 23.7211 1.93051 24.4239 1.93051C24.7259 1.93051 24.9393 2.06922 25.0464 2.41382C25.1713 2.8127 25.189 3.31755 25.189 3.73796C25.189 4.37893 25.1612 5.42997 24.4146 5.42997C23.6761 5.42997 23.6763 4.15564 23.6764 3.53763L23.6764 3.51742ZM5.85075 6.35872H6.80319H6.80403C6.85183 6.35982 6.89812 6.34147 6.93263 6.30768C6.96715 6.27388 6.98705 6.22743 6.98794 6.17861V3.53119L6.98792 3.48975C6.98753 2.91411 6.98701 2.15277 7.64596 2.15277C8.25514 2.15277 8.24572 2.82171 8.23811 3.36189V3.36191V3.36194V3.36197V3.362C8.23729 3.42023 8.23649 3.47696 8.23649 3.53119V6.17947C8.2381 6.27511 8.3117 6.35327 8.40521 6.35872H9.36018C9.40784 6.35959 9.4539 6.34114 9.48824 6.30737C9.52257 6.2736 9.54236 6.22728 9.54324 6.17861V3.53119L9.54316 3.46825C9.54258 3.18775 9.5418 2.80923 9.63267 2.57405C9.7253 2.33366 9.94925 2.17272 10.2021 2.16484C10.478 2.16484 10.6914 2.2596 10.7623 2.59559C10.7984 2.7573 10.7937 3.13217 10.7906 3.38076V3.38082V3.38089V3.38095V3.38101C10.7899 3.43957 10.7893 3.49111 10.7893 3.53119V6.17947C10.7905 6.27528 10.8643 6.35368 10.958 6.35872H11.9104C11.9582 6.35982 12.0045 6.34147 12.039 6.30768C12.0735 6.27388 12.0934 6.22743 12.0943 6.17861V3.02635C12.0943 2.94949 12.0956 2.87095 12.0969 2.79154C12.1047 2.32086 12.113 1.81985 11.8539 1.46012C11.5398 1.05207 11.0346 0.848736 10.5323 0.928185C10.03 1.00763 9.60873 1.35752 9.4302 1.84349C9.16277 1.21201 8.78062 0.918231 8.19346 0.918231C7.60631 0.918231 7.17016 1.21201 6.93901 1.84349H6.92129V1.19133C6.91627 1.09838 6.84359 1.02416 6.75257 1.01903H5.86425C5.76615 1.01804 5.68523 1.09723 5.68202 1.19736V6.19412C5.69067 6.28403 5.76239 6.35398 5.85075 6.35872ZM4.19309 6.39659C4.13036 6.45216 4.0402 6.46147 3.96785 6.41985C3.69792 6.19051 3.61655 6.06654 3.49157 5.87615L3.49156 5.87613L3.49156 5.87613L3.49144 5.87595C3.46998 5.84326 3.44724 5.80861 3.42203 5.77114C2.89815 6.31561 2.5278 6.47844 1.85038 6.47844C1.0481 6.47844 0.423828 5.97273 0.423828 4.96132C0.423828 4.17131 0.845635 3.63459 1.43616 3.37097C1.87222 3.17556 2.45403 3.1149 2.95704 3.06247C3.05056 3.05272 3.14137 3.04325 3.228 3.03326V2.90748C3.228 2.88348 3.22819 2.85904 3.22838 2.83427L3.22838 2.83421C3.23005 2.61975 3.23191 2.38097 3.11242 2.20104C2.99601 2.02184 2.77498 1.94862 2.57757 1.94862C2.21398 1.94862 1.89003 2.13901 1.81073 2.53272C1.80068 2.62456 1.73148 2.69806 1.64201 2.71191L0.725842 2.60939C0.680125 2.60271 0.639091 2.57718 0.612308 2.53876C0.585525 2.50033 0.575335 2.45238 0.584115 2.40608C0.795862 1.26199 1.8082 0.916527 2.71508 0.916527C3.17907 0.916527 3.78478 1.04231 4.14922 1.4007C4.57705 1.80974 4.5744 2.34523 4.57151 2.93042C4.57127 2.97874 4.57103 3.02739 4.57103 3.07633V4.59173C4.57103 4.99985 4.71931 5.20287 4.8755 5.41671L4.87551 5.41673L4.87553 5.41675L4.87554 5.41677L4.87556 5.41679L4.87557 5.41681C4.8941 5.44218 4.91274 5.4677 4.93125 5.49373C4.99199 5.57988 5.00549 5.68757 4.93125 5.75218C4.73638 5.91845 4.3905 6.22515 4.20069 6.39832L4.19309 6.39659ZM3.23213 4.024L3.23216 4.07118C3.23249 4.42952 3.23278 4.73338 3.05412 5.05781C2.90227 5.33177 2.66184 5.50063 2.39358 5.50063C2.02829 5.50063 1.81486 5.21633 1.81486 4.79419C1.81486 3.96542 2.5429 3.81465 3.23213 3.81465V4.024ZM17.3659 5.4131C17.3845 5.43854 17.4032 5.46413 17.4218 5.49024C17.4859 5.57983 17.4994 5.68494 17.4176 5.74438C17.2227 5.91065 16.8768 6.21821 16.687 6.39051C16.6239 6.44531 16.534 6.45424 16.4617 6.41291C16.1907 6.18259 16.1104 6.06043 15.9836 5.86757C15.9624 5.83536 15.9399 5.80118 15.9151 5.7642C15.392 6.30867 15.0192 6.4715 14.3443 6.4715C13.542 6.4715 12.9177 5.96579 12.9177 4.95524C12.9177 4.16437 13.337 3.62765 13.9343 3.36403C14.3713 3.16788 14.9563 3.10751 15.4608 3.05545C15.5524 3.04601 15.6412 3.03684 15.7261 3.02718V2.90398C15.7261 2.88009 15.7263 2.85575 15.7265 2.83109C15.7281 2.61654 15.73 2.37767 15.6097 2.19841C15.4966 2.01921 15.2714 1.94512 15.0748 1.94512C14.7112 1.94512 14.389 2.13552 14.3088 2.52923C14.2985 2.62093 14.2294 2.69429 14.1401 2.70842L13.2164 2.60676C13.1703 2.60031 13.1289 2.57474 13.1019 2.5361C13.0749 2.49745 13.0648 2.44915 13.0738 2.40258C13.2864 1.25764 14.2987 0.913034 15.2056 0.913034C15.6687 0.913034 16.2745 1.03881 16.6397 1.3972C17.0685 1.80413 17.0654 2.33547 17.0621 2.91768C17.0618 2.96902 17.0616 3.02076 17.0616 3.07284V4.5891C17.0616 4.99638 17.2098 5.19931 17.3659 5.4131ZM14.8892 5.49539C15.1566 5.49539 15.3979 5.32654 15.5489 5.05344C15.7282 4.72724 15.728 4.42194 15.7278 4.05912L15.7278 4.02049V3.81028C15.0385 3.81028 14.3105 3.96018 14.3105 4.78982C14.3105 5.2111 14.5239 5.49539 14.8892 5.49539ZM18.2282 1.18007V1.89167C18.2277 1.94049 18.2468 1.98738 18.2811 2.0214C18.3154 2.05543 18.3618 2.07362 18.4096 2.07173H20.0496L18.1692 4.82856C18.0833 4.97644 18.0428 5.14716 18.0527 5.31876V6.04674C18.0527 6.15184 18.1666 6.27159 18.2755 6.21215C19.3126 5.66298 20.5459 5.66074 21.585 6.20612C21.7039 6.26901 21.8161 6.14753 21.8161 6.04243V5.27741C21.8129 5.16043 21.7485 5.0542 21.6474 4.99914C21.0999 4.68469 20.4629 4.59251 19.8606 4.60715L21.4837 2.24145C21.6347 2.02952 21.7191 1.89512 21.7191 1.7926V1.18007C21.7196 1.13141 21.7006 1.08466 21.6665 1.05066C21.6324 1.01666 21.5862 0.998363 21.5386 1.00001H18.4062C18.3585 0.997276 18.312 1.01531 18.278 1.04963C18.2441 1.08395 18.226 1.13135 18.2282 1.18007Z" fill="black"/>
</g>
</svg>
