<svg width="51" height="51" viewBox="0 0 51 51" fill="none" xmlns="http://www.w3.org/2000/svg">
<g id="Bold / Business, Statistic / Chart 2">
<g id="Vector">
<path d="M36.7474 4.8724C36.125 5.4948 36.125 6.49653 36.125 8.5V36.125C36.125 38.1285 36.125 39.1302 36.7474 39.7526C37.3698 40.375 38.3715 40.375 40.375 40.375C42.3785 40.375 43.3802 40.375 44.0026 39.7526C44.625 39.1302 44.625 38.1285 44.625 36.125V8.5C44.625 6.49653 44.625 5.4948 44.0026 4.8724C43.3802 4.25 42.3785 4.25 40.375 4.25C38.3715 4.25 37.3698 4.25 36.7474 4.8724Z" fill="white"/>
<path d="M21.25 14.875C21.25 12.8715 21.25 11.8698 21.8724 11.2474C22.4948 10.625 23.4965 10.625 25.5 10.625C27.5035 10.625 28.5052 10.625 29.1276 11.2474C29.75 11.8698 29.75 12.8715 29.75 14.875V36.125C29.75 38.1285 29.75 39.1302 29.1276 39.7526C28.5052 40.375 27.5035 40.375 25.5 40.375C23.4965 40.375 22.4948 40.375 21.8724 39.7526C21.25 39.1302 21.25 38.1285 21.25 36.125V14.875Z" fill="white"/>
<path d="M6.9974 19.7474C6.375 20.3698 6.375 21.3715 6.375 23.375V36.125C6.375 38.1285 6.375 39.1302 6.9974 39.7526C7.6198 40.375 8.62153 40.375 10.625 40.375C12.6285 40.375 13.6302 40.375 14.2526 39.7526C14.875 39.1302 14.875 38.1285 14.875 36.125V23.375C14.875 21.3715 14.875 20.3698 14.2526 19.7474C13.6302 19.125 12.6285 19.125 10.625 19.125C8.62153 19.125 7.6198 19.125 6.9974 19.7474Z" fill="white"/>
</g>
</g>
</svg>
