<svg width="64" height="64" viewBox="0 0 64 64" fill="none" xmlns="http://www.w3.org/2000/svg">
<path d="M46.8738 11.8173L41.5405 9.0185C36.8588 6.56167 34.518 5.33325 31.9999 5.33325C29.4819 5.33325 27.141 6.56167 22.4594 9.01849L17.126 11.8173C12.396 14.2995 9.61565 15.7586 7.89243 17.7101L31.9999 29.7639L56.1074 17.7101C54.3842 15.7586 51.6038 14.2995 46.8738 11.8173Z" fill="white"/>
<path d="M57.9955 21.2382L33.9999 33.236V58.4106C35.9144 57.9338 38.0926 56.7907 41.5405 54.9813L46.8738 52.1825C52.6116 49.1715 55.4805 47.666 57.0735 44.9606C58.6666 42.2553 58.6666 38.8888 58.6666 32.1559V31.8439C58.6666 26.7969 58.6666 23.6415 57.9955 21.2382Z" fill="white"/>
<path d="M29.9999 58.4106V33.236L6.00429 21.2382C5.33325 23.6415 5.33325 26.7969 5.33325 31.8439V32.1559C5.33325 38.8888 5.33325 42.2553 6.92631 44.9606C8.51937 47.666 11.3883 49.1715 17.126 52.1825L22.4594 54.9813C25.9072 56.7907 28.0855 57.9338 29.9999 58.4106Z" fill="white"/>
</svg>
