<svg width="45" height="45" viewBox="0 0 45 45" fill="none" xmlns="http://www.w3.org/2000/svg">
<g id="Bold / Time / Calendar">
<g id="Subtract">
<path d="M14.5312 4.6875C14.5312 3.91085 13.9017 3.28125 13.125 3.28125C12.3483 3.28125 11.7188 3.91085 11.7188 4.6875V7.64861C9.02001 7.86471 7.24832 8.39508 5.9467 9.6967C4.64508 10.9983 4.11471 12.77 3.89861 15.4688H41.1014C40.8853 12.77 40.3549 10.9983 39.0533 9.6967C37.7517 8.39508 35.98 7.86471 33.2812 7.64861V4.6875C33.2812 3.91085 32.6516 3.28125 31.875 3.28125C31.0984 3.28125 30.4688 3.91085 30.4688 4.6875V7.52419C29.2214 7.5 27.8232 7.5 26.25 7.5H18.75C17.1768 7.5 15.7786 7.5 14.5312 7.52419V4.6875Z" fill="white"/>
<path fillRule="evenodd" clipRule="evenodd" d="M3.75 22.5C3.75 20.9268 3.75 19.5286 3.77419 18.2812H41.2258C41.25 19.5286 41.25 20.9268 41.25 22.5V26.25C41.25 33.3211 41.25 36.8566 39.0533 39.0533C36.8566 41.25 33.3211 41.25 26.25 41.25H18.75C11.6789 41.25 8.1434 41.25 5.9467 39.0533C3.75 36.8566 3.75 33.3211 3.75 26.25V22.5ZM31.875 26.25C32.9105 26.25 33.75 25.4105 33.75 24.375C33.75 23.3395 32.9105 22.5 31.875 22.5C30.8395 22.5 30 23.3395 30 24.375C30 25.4105 30.8395 26.25 31.875 26.25ZM31.875 33.75C32.9105 33.75 33.75 32.9105 33.75 31.875C33.75 30.8395 32.9105 30 31.875 30C30.8395 30 30 30.8395 30 31.875C30 32.9105 30.8395 33.75 31.875 33.75ZM24.375 24.375C24.375 25.4105 23.5355 26.25 22.5 26.25C21.4645 26.25 20.625 25.4105 20.625 24.375C20.625 23.3395 21.4645 22.5 22.5 22.5C23.5355 22.5 24.375 23.3395 24.375 24.375ZM24.375 31.875C24.375 32.9105 23.5355 33.75 22.5 33.75C21.4645 33.75 20.625 32.9105 20.625 31.875C20.625 30.8395 21.4645 30 22.5 30C23.5355 30 24.375 30.8395 24.375 31.875ZM13.125 26.25C14.1605 26.25 15 25.4105 15 24.375C15 23.3395 14.1605 22.5 13.125 22.5C12.0895 22.5 11.25 23.3395 11.25 24.375C11.25 25.4105 12.0895 26.25 13.125 26.25ZM13.125 33.75C14.1605 33.75 15 32.9105 15 31.875C15 30.8395 14.1605 30 13.125 30C12.0895 30 11.25 30.8395 11.25 31.875C11.25 32.9105 12.0895 33.75 13.125 33.75Z" fill="white"/>
</g>
</g>
</svg>
