<svg width="42" height="42" viewBox="0 0 42 42" fill="none" xmlns="http://www.w3.org/2000/svg">
<path id="Vector (Stroke)" fill-rule="evenodd" clip-rule="evenodd" d="M21.1118 3.90575C11.8739 3.90575 4.51658 11.0903 4.51658 19.7936C4.51658 23.2145 5.64399 26.3835 7.57221 28.9823C7.91661 29.4464 8.03774 30.0394 7.90298 30.6015L6.61952 35.9551C6.24506 37.5171 7.9291 38.5994 9.14335 37.795L13.5398 34.8822C14.0538 34.5417 14.6983 34.464 15.2784 34.6726C17.0898 35.3239 19.0547 35.6815 21.1118 35.6815C30.3498 35.6815 37.7071 28.497 37.7071 19.7936C37.7071 11.0903 30.3498 3.90575 21.1118 3.90575ZM0.611816 19.7936C0.611816 8.79063 9.86265 0 21.1118 0C32.361 0 41.6118 8.79063 41.6118 19.7936C41.6118 30.7966 32.361 39.5872 21.1118 39.5872C18.9512 39.5872 16.865 39.2639 14.9042 38.6631L11.2996 41.0512C7.02475 43.8834 1.6508 39.9314 2.82241 35.0444L3.89989 30.5499C1.82284 27.4568 0.611816 23.7618 0.611816 19.7936Z" fill="#4E9D35"/>
</svg>
