<svg width="64" height="64" viewBox="0 0 64 64" fill="none" xmlns="http://www.w3.org/2000/svg">
<path d="M32.0001 58.6666C46.7277 58.6666 58.6667 46.7275 58.6667 31.9999C58.6667 17.2723 46.7277 5.33325 32.0001 5.33325C17.2725 5.33325 5.33342 17.2723 5.33342 31.9999C5.33342 36.2657 6.33506 40.2976 8.11598 43.8732C8.58925 44.8234 8.74678 45.9094 8.4724 46.9349L6.88411 52.871C6.19463 55.4479 8.55212 57.8054 11.129 57.1159L17.0651 55.5276C18.0906 55.2532 19.1766 55.4107 20.1268 55.884C23.7024 57.6649 27.7343 58.6666 32.0001 58.6666Z" fill="white"/>
<path d="M40.0001 31.9999C40.0001 33.4727 41.194 34.6666 42.6667 34.6666C44.1395 34.6666 45.3334 33.4727 45.3334 31.9999C45.3334 30.5272 44.1395 29.3333 42.6667 29.3333C41.194 29.3333 40.0001 30.5272 40.0001 31.9999Z" fill="#414141"/>
<path d="M29.3334 31.9999C29.3334 33.4727 30.5273 34.6666 32.0001 34.6666C33.4728 34.6666 34.6667 33.4727 34.6667 31.9999C34.6667 30.5272 33.4728 29.3333 32.0001 29.3333C30.5273 29.3333 29.3334 30.5272 29.3334 31.9999Z" fill="#414141"/>
<path d="M18.6668 31.9999C18.6668 33.4727 19.8607 34.6666 21.3334 34.6666C22.8062 34.6666 24.0001 33.4727 24.0001 31.9999C24.0001 30.5272 22.8062 29.3333 21.3334 29.3333C19.8607 29.3333 18.6668 30.5272 18.6668 31.9999Z" fill="#414141"/>
</svg>
