<svg width="28" height="29" viewBox="0 0 28 29" fill="none" xmlns="http://www.w3.org/2000/svg">
<g id="Bold / Essentional, UI / Copy">
<path id="Vector" d="M17.4042 2.98279H12.957C10.9422 2.98277 9.34627 2.98276 8.0973 3.15135C6.81191 3.32486 5.77153 3.69044 4.95107 4.5142C4.1306 5.33796 3.76649 6.38252 3.59367 7.67306C3.42575 8.92705 3.42576 10.5293 3.42578 12.5522V19.2189C3.42578 20.9412 4.47639 22.4171 5.96927 23.0359C5.89243 21.9973 5.89249 20.54 5.89256 19.3276L5.89257 13.7151L5.89256 13.6064C5.89248 12.1427 5.89241 10.8816 6.02765 9.87163C6.17258 8.78929 6.49942 7.75181 7.33757 6.91029C8.17572 6.06877 9.20906 5.74062 10.2871 5.5951C11.293 5.45932 12.5491 5.45939 14.0069 5.45947L14.1152 5.45948H17.4042L17.5125 5.45947C18.9703 5.45939 20.2237 5.45932 21.2296 5.5951C20.6278 4.06519 19.1419 2.98279 17.4042 2.98279Z" fill="white"/>
<g id="Vector_2">
<path d="M7.53711 13.7149C7.53711 10.6015 7.53711 9.04477 8.50045 8.07756C9.46379 7.11035 11.0143 7.11035 14.1152 7.11035H17.4042C20.5052 7.11035 22.0557 7.11035 23.019 8.07756C23.9823 9.04477 23.9823 10.6015 23.9823 13.7149V19.2186C23.9823 22.332 23.9823 23.8887 23.019 24.8559C22.0557 25.8231 20.5052 25.8231 17.4042 25.8231H14.1152C11.0143 25.8231 9.46379 25.8231 8.50045 24.8559C7.53711 23.8887 7.53711 22.332 7.53711 19.2186V13.7149Z" fill="white"/>
</g>
</g>
</svg>
