<svg width="43" height="43" viewBox="0 0 43 43" fill="none" xmlns="http://www.w3.org/2000/svg">
<path fill-rule="evenodd" clip-rule="evenodd" d="M12.7683 1.38643C15.697 0.906325 18.6607 0.671309 21.6286 0.683824C25.2262 0.683824 28.2 1.00069 30.4889 1.38643L30.7545 1.4317C32.7423 1.7643 34.3955 2.0418 35.6866 3.63201C36.5151 4.65344 36.7828 5.75754 36.8438 6.98759L37.8121 7.31035C38.7233 7.61344 39.5243 7.8811 40.1561 8.17631C40.841 8.49514 41.4688 8.9045 41.949 9.57168C42.4292 10.2369 42.6201 10.9631 42.7067 11.713C42.7854 12.4077 42.7854 13.2481 42.7854 14.2124V14.4958C42.7854 15.287 42.7854 15.9857 42.7264 16.5702C42.6634 17.2019 42.5237 17.8179 42.1753 18.4123C41.823 19.0086 41.3527 19.4298 40.8311 19.7919C40.3489 20.1265 39.7388 20.467 39.0461 20.8508L33.8503 23.7379C32.7876 25.8261 31.3312 27.6879 29.3237 29.0321C27.6017 30.1873 25.5411 30.9195 23.1046 31.1281V35.1252H25.919C26.7152 35.1253 27.4869 35.4012 28.1026 35.906C28.7183 36.4109 29.1401 37.1135 29.2962 37.8943L29.7272 40.0454H33.437C33.8285 40.0454 34.204 40.201 34.4808 40.4778C34.7576 40.7546 34.9131 41.13 34.9131 41.5215C34.9131 41.913 34.7576 42.2884 34.4808 42.5652C34.204 42.8421 33.8285 42.9976 33.437 42.9976H9.82006C9.42859 42.9976 9.05315 42.8421 8.77633 42.5652C8.49952 42.2884 8.344 41.913 8.344 41.5215C8.344 41.13 8.49952 40.7546 8.77633 40.4778C9.05315 40.201 9.42859 40.0454 9.82006 40.0454H13.5299L13.9609 37.8943C14.117 37.1135 14.5388 36.4109 15.1545 35.906C15.7702 35.4012 16.5419 35.1253 17.3381 35.1252H20.1525V31.1281C17.716 30.9195 15.6554 30.1873 13.9334 29.034C11.9279 27.6879 10.4695 25.8261 9.40677 23.7379L4.21103 20.8508C3.59965 20.5262 3.00396 20.1728 2.42598 19.7919C1.88167 19.4383 1.42312 18.9676 1.08375 18.4143C0.764095 17.8485 0.575131 17.2184 0.530722 16.5702C0.47168 15.9857 0.47168 15.287 0.47168 14.4958V14.2104C0.47168 13.25 0.47168 12.4077 0.550403 11.713C0.636998 10.9631 0.825934 10.2369 1.30811 9.57168C1.78833 8.9045 2.41614 8.49514 3.09907 8.17434C3.73476 7.87913 4.5338 7.61344 5.44502 7.31035L6.41332 6.98759C6.47433 5.75557 6.74199 4.65344 7.57055 3.63201C8.86358 2.03983 10.5148 1.76233 12.5045 1.4317L12.7683 1.38643ZM16.5411 40.0454H26.716L26.4011 38.4729C26.3789 38.3615 26.3186 38.2611 26.2307 38.189C26.1428 38.1169 26.0327 38.0774 25.919 38.0774H17.3381C17.2244 38.0774 17.1143 38.1169 17.0264 38.189C16.9385 38.2611 16.8782 38.3615 16.856 38.4729L16.5411 40.0454ZM6.47826 10.0775C6.61997 13.069 6.95651 16.3753 7.79885 19.4652L5.70087 18.3021C4.93529 17.875 4.45508 17.6074 4.10869 17.3673C3.78986 17.1449 3.68556 17.013 3.62848 16.9146C3.56944 16.8162 3.50646 16.6627 3.4671 16.2769C3.42537 15.6625 3.41093 15.0466 3.4238 14.4309V14.2872C3.4238 13.2264 3.42577 12.5553 3.48284 12.0475C3.53795 11.5791 3.62455 11.404 3.70327 11.2977C3.78002 11.1894 3.91779 11.0517 4.34486 10.8529C4.80933 10.6364 5.44699 10.4219 6.45071 10.0853L6.47826 10.0775ZM35.4583 19.4652L37.5562 18.3021C38.3218 17.875 38.802 17.6074 39.1484 17.3673C39.4672 17.1449 39.5715 17.013 39.6286 16.9146C39.6877 16.8162 39.7506 16.6627 39.79 16.2769C39.8313 15.8558 39.8333 15.3067 39.8333 14.4309V14.2872C39.8333 13.2264 39.8313 12.5553 39.7743 12.0475C39.7192 11.5791 39.6326 11.404 39.5538 11.2977C39.4771 11.1894 39.3393 11.0517 38.9122 10.8529C38.4478 10.6364 37.8101 10.4219 36.8064 10.0853L36.7788 10.0775C36.6391 13.069 36.2986 16.3753 35.4583 19.4652ZM21.6286 3.63595C18.2041 3.63595 15.3956 3.93706 13.2603 4.29722C10.8848 4.69871 10.3869 4.84828 9.86336 5.49381C9.34772 6.12754 9.29852 6.72977 9.40283 9.39652C9.57996 13.8404 10.1664 18.6386 11.981 22.2875C12.8785 24.0863 14.0514 25.5584 15.5787 26.5818C17.0941 27.5993 19.0523 28.237 21.6286 28.237C24.2067 28.237 26.163 27.5993 27.6804 26.5818C29.2076 25.5584 30.3786 24.0863 31.2741 22.2855C33.0907 18.6386 33.6771 13.8424 33.8523 9.39455C33.9605 6.72977 33.9113 6.12754 33.3957 5.49381C32.8722 4.84828 32.3723 4.69871 29.9968 4.29722C27.2306 3.84465 24.4315 3.62345 21.6286 3.63595Z" fill="white"/>
</svg>
