<svg width="45" height="44" viewBox="0 0 45 44" fill="none" xmlns="http://www.w3.org/2000/svg">
<g id="Union">
<path d="M19.8051 23.5192C19.0859 23.9555 18.24 23.914 17.5669 23.4094C16.6832 22.7467 16.5041 21.4932 17.1666 20.6094L17.1674 20.6083C17.1674 20.6083 17.0326 20.7833 17.1683 20.6072C17.304 20.431 17.4487 20.2622 17.5992 20.0986C17.8512 19.8247 18.215 19.4614 18.6831 19.0784C19.6076 18.3219 21.0142 17.4273 22.8282 17.0646C23.1791 16.9944 23.7355 16.9713 24.305 17.2807C24.8867 17.5968 25.1765 18.0932 25.3079 18.4602C25.5248 19.0658 25.4366 19.6511 25.4006 19.8751C25.3054 20.4664 25.0637 21.1869 24.8099 21.8667C24.3587 23.0756 23.6802 24.6399 23.0056 26.1952L23.0045 26.1976C22.8897 26.4624 22.7749 26.727 22.6614 26.9896C22.113 28.258 21.5932 29.4798 21.1863 30.5321C21.6754 30.2623 22.1551 29.9725 22.6105 29.6486C23.5071 29.0047 24.756 29.209 25.4007 30.1053C26.1173 31.1016 25.7358 32.3556 24.7816 33.0109C24.6858 33.0768 24.5503 33.1681 24.3824 33.277C24.0481 33.4937 23.5774 33.7848 23.0293 34.0834C22.0087 34.6392 20.4364 35.3813 18.9151 35.4944C18.5701 35.5201 18.1356 35.4784 17.6976 35.2581C17.2494 35.0326 16.9386 34.6908 16.743 34.3454C16.4011 33.7415 16.402 33.1199 16.4164 32.8151C16.4488 32.1314 16.6683 31.34 16.8978 30.6371C17.3811 29.1572 18.2022 27.224 18.9899 25.4022C19.1163 25.1098 19.2429 24.8175 19.3696 24.5253C19.5149 24.19 19.6602 23.8547 19.8051 23.5192Z" fill="#4E9D35"/>
<path d="M24.3342 16.2422C26.4864 16.2422 28.2311 14.4975 28.2311 12.3453C28.2311 10.1931 26.4864 8.44836 24.3342 8.44836C22.182 8.44836 20.4373 10.1931 20.4373 12.3453C20.4373 14.4975 22.182 16.2422 24.3342 16.2422Z" fill="#4E9D35"/>
<path fill-rule="evenodd" clip-rule="evenodd" d="M15.0521 0.458204C19.9396 -0.152735 24.8841 -0.152735 29.7717 0.458204C37.1865 1.38505 43.0268 7.22542 43.9537 14.6402C44.5646 19.5277 44.5646 24.4723 43.9537 29.3598C43.0268 36.7746 37.1864 42.6149 29.7717 43.5418C24.8841 44.1527 19.9396 44.1527 15.0521 43.5418C7.63728 42.6149 1.79692 36.7746 0.87007 29.3598C0.25913 24.4723 0.25913 19.5277 0.87007 14.6402C1.79692 7.22542 7.63728 1.38505 15.0521 0.458204ZM29.2755 4.42732C24.7175 3.85756 20.1062 3.85756 15.5482 4.42732C9.9492 5.12719 5.53906 9.53733 4.83918 15.1363C4.26943 19.6944 4.26943 24.3056 4.83918 28.8637C5.53906 34.4627 9.9492 38.8728 15.5482 39.5727C20.1062 40.1424 24.7175 40.1424 29.2755 39.5727C34.8745 38.8728 39.2847 34.4627 39.9846 28.8637C40.5543 24.3056 40.5543 19.6944 39.9846 15.1363C39.2847 9.53733 34.8745 5.12719 29.2755 4.42732Z" fill="#4E9D35"/>
</g>
</svg>
