<svg width="170" height="170" viewBox="0 0 170 170" fill="none" xmlns="http://www.w3.org/2000/svg">
<g id="Vector" opacity="0.3">
<path fill-rule="evenodd" clip-rule="evenodd" d="M111.519 17.1055C93.9081 14.9042 76.0919 14.9042 58.4813 17.1055C36.8488 19.8096 19.8096 36.8488 17.1055 58.4813C14.9042 76.0919 14.9042 93.9081 17.1055 111.519C19.8096 133.151 36.8488 150.19 58.4813 152.894C76.0919 155.096 93.9081 155.096 111.519 152.894C133.151 150.19 150.19 133.151 152.894 111.519C155.096 93.9081 155.096 76.0919 152.894 58.4813C150.19 36.8488 133.151 19.8096 111.519 17.1055ZM56.5644 1.77034C75.448 -0.590112 94.552 -0.590112 113.436 1.77033C142.084 5.35134 164.649 27.9164 168.23 56.5644C170.59 75.448 170.59 94.552 168.23 113.436C164.649 142.084 142.084 164.649 113.436 168.23C94.552 170.59 75.448 170.59 56.5644 168.23C27.9164 164.649 5.35134 142.084 1.77034 113.436C-0.590111 94.552 -0.590112 75.448 1.77034 56.5644C5.35134 27.9164 27.9164 5.35134 56.5644 1.77034Z" fill="#3F3F3F"/>
<path fill-rule="evenodd" clip-rule="evenodd" d="M136.497 75.3609C139.687 78.1962 139.974 83.0804 137.139 86.2701L114.459 111.785C107.245 119.9 95.3658 121.922 85.8744 116.649L72.1195 109.007C69.1036 107.332 65.3424 107.858 62.9028 110.298L44.1004 129.1C41.0827 132.118 36.19 132.118 33.1724 129.1C30.1547 126.083 30.1547 121.19 33.1724 118.172L51.9748 99.3699C59.2935 92.0512 70.5772 90.4709 79.6249 95.4974L93.3798 103.139C96.5436 104.897 100.503 104.223 102.908 101.518L125.588 76.0026C128.423 72.813 133.308 72.5257 136.497 75.3609Z" fill="#3F3F3F"/>
<path fill-rule="evenodd" clip-rule="evenodd" d="M57.9545 50.2273C53.6869 50.2273 50.2273 53.6869 50.2273 57.9545C50.2273 62.2222 53.6869 65.6818 57.9545 65.6818C62.2222 65.6818 65.6818 62.2222 65.6818 57.9545C65.6818 53.6869 62.2222 50.2273 57.9545 50.2273ZM34.7727 57.9545C34.7727 45.1516 45.1516 34.7727 57.9545 34.7727C70.7575 34.7727 81.1364 45.1516 81.1364 57.9545C81.1364 70.7575 70.7575 81.1364 57.9545 81.1364C45.1516 81.1364 34.7727 70.7575 34.7727 57.9545Z" fill="#3F3F3F"/>
</g>
</svg>
