<svg width="33" height="33" viewBox="0 0 33 33" fill="none" xmlns="http://www.w3.org/2000/svg">
<g id="Bold / Essentional, UI / Gift">
<g id="Vector">
<path d="M15.2655 3.26636C9.64514 3.27184 6.73716 3.37239 4.8923 5.21725C3.04743 7.06211 2.94689 9.97009 2.94141 15.5904H9.48802C9.02039 15.0063 8.67099 14.3174 8.48047 13.5553C7.76332 10.6867 10.3617 8.08827 13.2303 8.80542C13.9924 8.99594 14.6814 9.34535 15.2655 9.81297V3.26636Z" fill="#439115"/>
<path d="M2.94141 17.589C2.94689 23.2093 3.04743 26.1173 4.8923 27.9622C6.73716 29.807 9.64514 29.9076 15.2655 29.9131V19.4192C14.2267 21.494 12.0812 22.9185 9.60293 22.9185C9.05104 22.9185 8.60365 22.4711 8.60365 21.9192C8.60365 21.3673 9.05104 20.9199 9.60293 20.9199C11.6505 20.9199 13.3661 19.4987 13.8173 17.589H2.94141Z" fill="#439115"/>
<path d="M17.264 29.9131C22.8844 29.9076 25.7924 29.807 27.6372 27.9622C29.4821 26.1173 29.5826 23.2093 29.5881 17.589H18.7123C19.1634 19.4987 20.879 20.9199 22.9266 20.9199C23.4785 20.9199 23.9259 21.3673 23.9259 21.9192C23.9259 22.4711 23.4785 22.9185 22.9266 22.9185C20.4484 22.9185 18.3028 21.494 17.264 19.4192V29.9131Z" fill="#439115"/>
<path d="M29.5881 15.5904C29.5826 9.97009 29.4821 7.06211 27.6372 5.21725C25.7924 3.37239 22.8844 3.27184 17.264 3.26636V9.81297C17.8481 9.34535 18.5371 8.99594 19.2992 8.80542C22.1678 8.08827 24.7662 10.6867 24.0491 13.5553C23.8585 14.3174 23.5091 15.0063 23.0415 15.5904H29.5881Z" fill="#439115"/>
<path d="M12.7456 10.7443C14.2266 11.1145 15.2655 12.4452 15.2655 13.9717V15.5904H13.6468C12.1202 15.5904 10.7896 14.5515 10.4193 13.0705C10.0681 11.6656 11.3407 10.3931 12.7456 10.7443Z" fill="#439115"/>
<path d="M17.264 13.9717V15.5904H18.8828C20.4093 15.5904 21.7399 14.5515 22.1102 13.0705C22.4614 11.6656 21.1888 10.3931 19.7839 10.7443C18.303 11.1145 17.264 12.4452 17.264 13.9717Z" fill="#439115"/>
</g>
</g>
</svg>
