<svg width="34" height="34" viewBox="0 0 34 34" fill="none" xmlns="http://www.w3.org/2000/svg">
<path d="M15.3334 21.167C15.3334 23.467 19.065 25.3337 23.6667 25.3337C28.2683 25.3337 32 23.467 32 21.167M2.00012 12.8337C2.00012 15.1337 5.73177 17.0004 10.3334 17.0004C12.2101 17.0004 13.9417 16.6904 15.3334 16.167M2.00012 18.667C2.00012 20.967 5.73177 22.8337 10.3334 22.8337C12.2101 22.8337 13.9401 22.5237 15.3334 22.0003M23.6667 18.667C19.065 18.667 15.3334 16.8004 15.3334 14.5004C15.3334 12.2004 19.065 10.3337 23.6667 10.3337C28.2683 10.3337 32 12.2004 32 14.5004C32 16.8004 28.2683 18.667 23.6667 18.667Z" stroke="#003F8A" stroke-width="2.37382" stroke-linecap="round" stroke-linejoin="round"/>
<path d="M2.00012 6.16699V24.5002C2.00012 26.8002 5.73177 28.6669 10.3334 28.6669C12.2101 28.6669 13.9401 28.3569 15.3334 27.8335M15.3334 27.8335V14.5003M15.3334 27.8335C15.3334 30.1335 19.065 32.0002 23.6667 32.0002C28.2683 32.0002 32 30.1335 32 27.8335V14.5003M18.6667 11.167V6.16699" stroke="#003F8A" stroke-width="2.37382" stroke-linecap="round" stroke-linejoin="round"/>
<path d="M10.3333 10.3333C5.73165 10.3333 2 8.46663 2 6.16664C2 3.86666 5.73165 2 10.3333 2C14.9349 2 18.6666 3.86666 18.6666 6.16664C18.6666 8.46663 14.9349 10.3333 10.3333 10.3333Z" stroke="#003F8A" stroke-width="2.37382" stroke-linecap="round" stroke-linejoin="round"/>
</svg>
