<svg width="45" height="45" viewBox="0 0 45 45" fill="none" xmlns="http://www.w3.org/2000/svg">
<g id="Bold / Essentional, UI / Database">
<g id="Vector">
<path d="M37.5 33.75C37.5 37.8921 30.7843 41.25 22.5 41.25C14.2157 41.25 7.5 37.8921 7.5 33.75V26.2012C8.44165 27.3574 9.77803 28.3179 11.2645 29.0611C14.2126 30.5351 18.1869 31.4062 22.5 31.4062C26.8131 31.4062 30.7874 30.5351 33.7355 29.0611C35.222 28.3179 36.5583 27.3574 37.5 26.2012V33.75Z" fill="white"/>
<path d="M22.5 20.1562C26.8131 20.1562 30.7874 19.2851 33.7355 17.8111C35.222 17.0679 36.5583 16.1074 37.5 14.9512V22.5C37.5 23.4375 34.1518 25.4833 32.4777 26.5455C29.9968 27.7859 26.4712 28.5938 22.5 28.5938C18.5288 28.5938 15.0032 27.7859 12.5223 26.5455C10.3125 25.4406 7.5 23.4375 7.5 22.5V14.9512C8.44165 16.1074 9.77803 17.0679 11.2645 17.8111C14.2126 19.2851 18.1869 20.1562 22.5 20.1562Z" fill="white"/>
<path d="M32.4777 15.2955C29.9968 16.5359 26.4712 17.3438 22.5 17.3438C18.5288 17.3438 15.0032 16.5359 12.5223 15.2955C11.5572 14.9174 9.38694 13.7155 7.87781 11.7738C7.62101 11.4434 7.51079 11.0223 7.57478 10.6087C7.61781 10.3307 7.67774 10.0443 7.7546 9.86674C9.05279 6.38538 15.1609 3.75 22.5 3.75C29.8391 3.75 35.9472 6.38538 37.2454 9.86674C37.3223 10.0443 37.3822 10.3307 37.4252 10.6087C37.4892 11.0223 37.379 11.4434 37.1222 11.7738C35.6131 13.7155 33.4428 14.9174 32.4777 15.2955Z" fill="white"/>
</g>
</g>
</svg>
