<svg width="44" height="41" viewBox="0 0 44 41" fill="none" xmlns="http://www.w3.org/2000/svg">
<path id="Star 1" d="M18.5316 4.22974C19.9988 1.25676 24.2382 1.25675 25.7055 4.22973L28.5352 9.96331C29.1178 11.1439 30.2441 11.9622 31.5469 12.1515L37.8743 13.0709C41.1552 13.5476 42.4652 17.5795 40.0911 19.8937L35.5126 24.3566C34.5699 25.2756 34.1397 26.5996 34.3622 27.8972L35.4431 34.199C36.0035 37.4666 32.5738 39.9584 29.6393 38.4157L23.9799 35.4404C22.8146 34.8277 21.4225 34.8277 20.2572 35.4404L14.5978 38.4157C11.6633 39.9584 8.23355 37.4666 8.79399 34.199L9.87483 27.8972C10.0974 26.5996 9.66719 25.2756 8.72445 24.3566L4.14592 19.8937C1.77185 17.5795 3.08189 13.5476 6.36277 13.0709L12.6901 12.1515C13.993 11.9622 15.1192 11.1439 15.7019 9.96331L18.5316 4.22974Z" stroke="#3F3F3F" stroke-width="4" stroke-linecap="round" stroke-linejoin="round"/>
</svg>
