<svg width="45" height="42" viewBox="0 0 45 42" fill="none" xmlns="http://www.w3.org/2000/svg">
<g id="Group 45">
<path id="Vector" d="M15.0885 39.5904C19.8112 40.1365 24.5891 40.1365 29.3119 39.5904C35.8188 38.8381 40.9441 34.0972 41.7574 28.0783C42.0618 25.8259 42.2093 23.0108 42.1998 20.2224C42.1871 16.5065 38.5311 14.1082 34.8779 14.7885C31.4281 15.4309 27.0138 16 22.2002 16C17.3866 16 12.9722 15.4309 9.52247 14.7885C5.86931 14.1082 2.21328 16.5065 2.20063 20.2224C2.19113 23.0108 2.33857 25.8259 2.64296 28.0783C3.45632 34.0972 8.58157 38.8381 15.0885 39.5904Z" stroke="#3F3F3F" strokeWidth="4" strokeLinecap="round" strokeLinejoin="round"/>
<path id="Vector_2" d="M15.0879 9V7.75578C15.0879 4.70869 17.3728 2.11315 20.4187 2.02559C21.6057 1.99147 22.7936 1.99147 23.9806 2.02559C27.0264 2.11315 29.3113 4.70869 29.3113 7.75578V9" stroke="#3F3F3F" strokeWidth="4" strokeLinecap="round" strokeLinejoin="round"/>
</g>
</svg>
