<svg width="49" height="49" viewBox="0 0 49 49" fill="none" xmlns="http://www.w3.org/2000/svg">
<g id="Bold / Users / Users Group Rounded">
<circle id="Vector" cx="18.3776" cy="12.25" r="8.16667" fill="white"/>
<ellipse id="Vector_2" cx="18.3776" cy="34.7105" rx="14.2917" ry="8.16667" fill="white"/>
<g id="Vector_3">
<path d="M42.8732 34.7093C42.8732 38.0921 38.7172 40.8343 33.6431 40.8343C35.1381 39.2003 36.166 37.1493 36.166 34.7122C36.166 32.2723 35.1357 30.2193 33.6379 28.5844C38.712 28.5844 42.8732 31.3266 42.8732 34.7093Z" fill="white"/>
<path d="M36.7482 12.2516C36.7482 15.6343 34.0059 18.3766 30.6232 18.3766C29.8855 18.3766 29.1784 18.2462 28.5234 18.0072C29.4893 16.3084 30.041 14.3433 30.041 12.2493C30.041 10.1569 29.4901 8.19317 28.5256 6.49518C29.1799 6.25669 29.8863 6.12659 30.6232 6.12659C34.0059 6.12659 36.7482 8.86884 36.7482 12.2516Z" fill="white"/>
</g>
</g>
</svg>
