<svg width="45" height="45" viewBox="0 0 45 45" fill="none" xmlns="http://www.w3.org/2000/svg">
<path d="M21.0933 3.75C13.184 3.75771 9.09165 3.89921 6.49543 6.49543C3.89921 9.09165 3.75771 13.184 3.75 21.0933H12.9628C12.3048 20.2713 11.8131 19.3017 11.545 18.2293C10.5357 14.1924 14.1924 10.5357 18.2293 11.545C19.3017 11.8131 20.2713 12.3048 21.0933 12.9628V3.75Z" fill="white"/>
<path d="M3.75 23.9058C3.75771 31.8152 3.89921 35.9075 6.49543 38.5037C9.09165 41.0999 13.184 41.2414 21.0933 41.2491V26.4814C19.6315 29.4012 16.6121 31.4058 13.1246 31.4058C12.3479 31.4058 11.7183 30.7762 11.7183 29.9996C11.7183 29.2229 12.3479 28.5933 13.1246 28.5933C16.006 28.5933 18.4204 26.5933 19.0552 23.9058H3.75Z" fill="white"/>
<path d="M23.9058 41.2491C31.8152 41.2414 35.9075 41.0999 38.5037 38.5037C41.0999 35.9075 41.2414 31.8152 41.2491 23.9058H25.9439C26.5787 26.5933 28.9931 28.5933 31.8746 28.5933C32.6512 28.5933 33.2808 29.2229 33.2808 29.9996C33.2808 30.7762 32.6512 31.4058 31.8746 31.4058C28.387 31.4058 25.3676 29.4012 23.9058 26.4814V41.2491Z" fill="white"/>
<path d="M41.2491 21.0933C41.2414 13.184 41.0999 9.09165 38.5037 6.49543C35.9075 3.89921 31.8152 3.75771 23.9058 3.75V12.9628C24.7278 12.3048 25.6974 11.8131 26.7698 11.545C30.8067 10.5357 34.4634 14.1924 33.4542 18.2293C33.186 19.3017 32.6943 20.2713 32.0363 21.0933H41.2491Z" fill="white"/>
<path d="M17.5471 14.2735C19.6312 14.7945 21.0933 16.6671 21.0933 18.8153V21.0933H18.8153C16.6671 21.0933 14.7945 19.6312 14.2735 17.5471C13.7792 15.5701 15.5701 13.7792 17.5471 14.2735Z" fill="white"/>
<path d="M23.9058 18.8153V21.0933H26.1838C28.332 21.0933 30.2046 19.6312 30.7256 17.5471C31.2199 15.5701 29.4291 13.7792 27.452 14.2735C25.3679 14.7945 23.9058 16.6671 23.9058 18.8153Z" fill="white"/>
</svg>
