<svg width="64" height="64" viewBox="0 0 64 64" fill="none" xmlns="http://www.w3.org/2000/svg">
<path fill-rule="evenodd" clip-rule="evenodd" d="M9.00671 13.5533C8 14.9876 8 19.251 8 27.7779V31.9771C8 47.012 19.3039 54.3081 26.3962 57.4062C28.32 58.2466 29.282 58.6668 32 58.6668C34.718 58.6668 35.68 58.2466 37.6038 57.4062C44.6961 54.3081 56 47.012 56 31.9771V27.7779C56 19.251 56 14.9876 54.9933 13.5533C53.9866 12.1189 49.9778 10.7467 41.9602 8.00228L40.4327 7.47941C36.2534 6.0488 34.1637 5.3335 32 5.3335C29.8363 5.3335 27.7466 6.0488 23.5673 7.47941L22.0398 8.00228C14.0222 10.7467 10.0134 12.1189 9.00671 13.5533ZM28.9634 22.3024L28.6138 22.9295C28.2299 23.6182 28.0379 23.9626 27.7386 24.1898C27.4393 24.417 27.0665 24.5014 26.3209 24.6701L25.6422 24.8237C23.0185 25.4173 21.7067 25.7141 21.3946 26.7177C21.0825 27.7214 21.9768 28.7672 23.7654 30.8587L24.2282 31.3999C24.7365 31.9942 24.9906 32.2914 25.1049 32.6591C25.2192 33.0267 25.1808 33.4232 25.104 34.2162L25.034 34.9382C24.7636 37.7288 24.6284 39.1241 25.4455 39.7444C26.2626 40.3647 27.4909 39.7991 29.9474 38.6681L30.5829 38.3755C31.281 38.054 31.63 37.8933 32 37.8933C32.37 37.8933 32.719 38.054 33.4171 38.3755L34.0526 38.6681C36.5091 39.7991 37.7374 40.3647 38.5545 39.7444C39.3716 39.1241 39.2364 37.7288 38.966 34.9382L38.896 34.2162C38.8192 33.4232 38.7808 33.0267 38.8951 32.6591C39.0094 32.2914 39.2635 31.9942 39.7718 31.3999L40.2346 30.8587C42.0232 28.7672 42.9175 27.7214 42.6054 26.7177C42.2933 25.7141 40.9815 25.4173 38.3578 24.8237L37.6791 24.6701C36.9335 24.5014 36.5607 24.417 36.2614 24.1898C35.9621 23.9626 35.7701 23.6182 35.3862 22.9295L35.0366 22.3024C33.6855 19.8787 33.01 18.6668 32 18.6668C30.99 18.6668 30.3145 19.8787 28.9634 22.3024Z" fill="white"/>
</svg>
