<svg width="44" height="42" viewBox="0 0 44 42" fill="none" xmlns="http://www.w3.org/2000/svg">
<g id="Union">
<path d="M20.2769 4.02477C21.4256 3.99174 22.5752 3.99174 23.7239 4.02477C25.5777 4.07805 27.1121 5.67709 27.1121 7.75578V9C27.1121 10.1046 28.0076 11 29.1121 11C30.2167 11 31.1121 10.1046 31.1121 9V7.75578C31.1121 3.74029 28.0767 0.148237 23.8388 0.0264172C22.6135 -0.00880572 21.3873 -0.00880572 20.162 0.0264172C15.9241 0.148237 12.8887 3.74029 12.8887 7.75578V9C12.8887 10.1046 13.7841 11 14.8887 11C15.9932 11 16.8887 10.1046 16.8887 9V7.75578C16.8887 5.67709 18.4231 4.07805 20.2769 4.02477Z" fill="#4E9D35"/>
<path fillRule="evenodd" clipRule="evenodd" d="M43.9996 20.2157C43.9817 14.9609 38.8891 11.97 34.3116 12.8224C30.9497 13.4484 26.6614 14 22 14C17.3386 14 13.0503 13.4484 9.68841 12.8224C5.11095 11.97 0.018338 14.9609 0.000442448 20.2157C-0.00926619 23.0664 0.140697 25.9776 0.460775 28.3462C1.40961 35.3676 7.34357 40.7314 14.6586 41.5772C19.534 42.1409 24.466 42.1409 29.3414 41.5772C36.6564 40.7314 42.5904 35.3676 43.5392 28.3462C43.8593 25.9776 44.0093 23.0664 43.9996 20.2157ZM35.0439 16.7548C37.7727 16.2466 39.9922 18.0522 39.9996 20.2293C40.0089 22.9552 39.8639 25.6742 39.5753 27.8105C38.8974 32.8269 34.5808 36.9448 28.882 37.6037C24.3119 38.1321 19.6881 38.1321 15.118 37.6037C9.41919 36.9448 5.10263 32.8269 4.42475 27.8105C4.13606 25.6742 3.99114 22.9552 4.00042 20.2293C4.00783 18.0522 6.22728 16.2466 8.95613 16.7548C12.4938 17.4135 17.0341 18 22 18C26.9659 18 31.5062 17.4135 35.0439 16.7548Z" fill="#4E9D35"/>
</g>
</svg>
