<svg width="42" height="40" viewBox="0 0 42 40" fill="none" xmlns="http://www.w3.org/2000/svg">
<path id="Star 1 (Stroke)" fill-rule="evenodd" clip-rule="evenodd" d="M15.6671 3.27193C17.8485 -1.09063 24.1514 -1.09065 26.3329 3.27193L29.1376 8.88091C29.4263 9.45838 29.9845 9.85863 30.6302 9.95123L36.9017 10.8507C41.7795 11.5502 43.7272 17.4667 40.1976 20.8624L35.6595 25.2284C35.1923 25.6779 34.9791 26.3255 35.0894 26.9602L36.1607 33.1251C36.9939 37.92 31.8948 41.5766 27.5319 39.3127L21.9225 36.4021C21.345 36.1024 20.655 36.1024 20.0775 36.4021L14.4681 39.3127C10.1053 41.5766 5.00609 37.9201 5.83933 33.1251L6.91063 26.9602C7.02092 26.3255 6.80773 25.6779 6.34052 25.2284L1.80243 20.8625C-1.72722 17.4667 0.220469 11.5502 5.09833 10.8507L11.3698 9.95123C12.0155 9.85863 12.5737 9.45838 12.8624 8.88092L15.6671 3.27193ZM22.7776 5.00372C22.0505 3.54954 19.9495 3.54953 19.2224 5.00373L16.4177 10.6127C15.5514 12.3451 13.8769 13.5458 11.9399 13.8236L5.66845 14.7231C4.0425 14.9563 3.39326 16.9284 4.56981 18.0603L9.10791 22.4263C10.5095 23.7748 11.1491 25.7177 10.8182 27.6217L9.74695 33.7866C9.4692 35.3849 11.1689 36.6038 12.6232 35.8491L18.2326 32.9385C19.9651 32.0395 22.0349 32.0395 23.7674 32.9385L29.3768 35.8491C30.8311 36.6038 32.5308 35.3849 32.253 33.7866L31.1818 27.6217C30.8509 25.7177 31.4905 23.7748 32.8921 22.4263L37.4302 18.0603C38.6067 16.9284 37.9575 14.9563 36.3315 14.7231L30.0601 13.8236C28.1231 13.5458 26.4486 12.3451 25.5823 10.6127L22.7776 5.00372Z" fill="#4E9D35"/>
</svg>
