<svg width="45" height="45" viewBox="0 0 45 45" fill="none" xmlns="http://www.w3.org/2000/svg">
<g id="Bold / Like / Star">
<path id="Vector" d="M17.1622 10.1406C19.5372 5.88011 20.7246 3.74988 22.5 3.74988C24.2754 3.74988 25.4629 5.88011 27.8378 10.1406L28.4523 11.2428C29.1271 12.4535 29.4646 13.0589 29.9907 13.4583C30.5169 13.8577 31.1722 14.0059 32.4827 14.3025L33.6759 14.5724C38.2878 15.6159 40.5937 16.1377 41.1423 17.9019C41.691 19.6661 40.1189 21.5044 36.9748 25.181L36.1614 26.1322C35.268 27.1769 34.8212 27.6993 34.6203 28.3456C34.4193 28.9919 34.4868 29.6888 34.6219 31.0828L34.7449 32.3519C35.2202 37.2572 35.4579 39.7099 34.0216 40.8003C32.5853 41.8906 30.4262 40.8965 26.1081 38.9083L24.991 38.3939C23.7639 37.829 23.1504 37.5465 22.5 37.5465C21.8496 37.5465 21.2361 37.829 20.009 38.3939L18.8919 38.9083C14.5738 40.8965 12.4147 41.8906 10.9784 40.8003C9.5421 39.7099 9.77977 37.2573 10.2551 32.3519L10.3781 31.0828C10.5132 29.6888 10.5807 28.9919 10.3797 28.3456C10.1788 27.6993 9.73205 27.1769 8.8386 26.1322L8.02518 25.181C4.88109 21.5044 3.30905 19.6661 3.85766 17.9019C4.40628 16.1377 6.71223 15.6159 11.3241 14.5724L12.5173 14.3025C13.8278 14.0059 14.4831 13.8577 15.0093 13.4583C15.5354 13.0589 15.8729 12.4535 16.5477 11.2428L17.1622 10.1406Z" fill="white"/>
</g>
</svg>
