<svg width="32" height="32" viewBox="0 0 32 32" fill="none" xmlns="http://www.w3.org/2000/svg">
<g id="Bold / Money / Ticket Sale">
<path id="Vector" fillRule="evenodd" clipRule="evenodd" d="M13.675 5.17371H18.8616C23.7516 5.17371 26.1966 5.17371 27.7158 6.68906C28.7617 7.73242 29.0875 9.21361 29.189 11.6273C29.2091 12.1059 29.2192 12.3452 29.1298 12.5049C29.0404 12.6646 28.6836 12.8639 27.9699 13.2624C27.1773 13.705 26.6416 14.5507 26.6416 15.5212C26.6416 16.4917 27.1773 17.3373 27.9699 17.78C28.6836 18.1785 29.0404 18.3778 29.1298 18.5374C29.2192 18.6971 29.2091 18.9364 29.189 19.4151C29.0875 21.8288 28.7617 23.3099 27.7158 24.3533C26.1966 25.8687 23.7516 25.8687 18.8616 25.8687H13.675C8.78501 25.8687 6.34002 25.8687 4.82089 24.3533C3.77493 23.3099 3.44914 21.8288 3.34767 19.4151C3.32754 18.9364 3.31748 18.6971 3.40686 18.5374C3.49624 18.3778 3.85308 18.1785 4.56673 17.78C5.35932 17.3373 5.89507 16.4917 5.89507 15.5212C5.89507 14.5507 5.35932 13.705 4.56673 13.2624C3.85307 12.8639 3.49624 12.6646 3.40686 12.5049C3.31748 12.3452 3.32754 12.1059 3.34767 11.6273C3.44914 9.21361 3.77493 7.73242 4.82089 6.68906C6.34002 5.17371 8.78502 5.17371 13.675 5.17371ZM20.8572 10.9549C21.237 11.3338 21.237 11.948 20.8572 12.3268L13.0773 20.0874C12.6975 20.4663 12.0818 20.4663 11.702 20.0874C11.3222 19.7086 11.3222 19.0944 11.702 18.7155L19.4819 10.9549C19.8617 10.5761 20.4774 10.5761 20.8572 10.9549ZM19.5212 20.0482C20.2374 20.0482 20.8179 19.4691 20.8179 18.7548C20.8179 18.0404 20.2374 17.4613 19.5212 17.4613C18.8051 17.4613 18.2246 18.0404 18.2246 18.7548C18.2246 19.4691 18.8051 20.0482 19.5212 20.0482ZM13.038 13.581C13.7541 13.581 14.3346 13.0019 14.3346 12.2876C14.3346 11.5733 13.7541 10.9942 13.038 10.9942C12.3218 10.9942 11.7413 11.5733 11.7413 12.2876C11.7413 13.0019 12.3218 13.581 13.038 13.581Z" fill="#439115"/>
</g>
</svg>
