<svg width="43" height="44" viewBox="0 0 43 44" fill="none" xmlns="http://www.w3.org/2000/svg">
<path fill-rule="evenodd" clip-rule="evenodd" d="M12.5563 1.54195C15.4851 1.06184 18.4488 0.826827 21.4166 0.839342C25.0143 0.839342 27.9881 1.1562 30.2769 1.54195L30.5426 1.58721C32.5304 1.91982 34.1836 2.19732 35.4746 3.78753C36.3032 4.80896 36.5709 5.91305 36.6319 7.14311L37.6002 7.46587C38.5114 7.76896 39.3124 8.03661 39.9442 8.33183C40.629 8.65066 41.2569 9.06002 41.7371 9.7272C42.2173 10.3924 42.4082 11.1186 42.4948 11.8685C42.5735 12.5632 42.5735 13.4036 42.5735 14.3679V14.6513C42.5735 15.4425 42.5735 16.1412 42.5145 16.7257C42.4515 17.3574 42.3118 17.9735 41.9634 18.5678C41.6111 19.1641 41.1407 19.5853 40.6192 19.9474C40.137 20.282 39.5269 20.6225 38.8342 21.0063L33.6384 23.8934C32.5757 25.9816 31.1193 27.8434 29.1118 29.1876C27.3898 30.3428 25.3292 31.075 22.8927 31.2836V35.2808H25.7071C26.5033 35.2808 27.275 35.5567 27.8907 36.0616C28.5064 36.5664 28.9282 37.269 29.0843 38.0499L29.5153 40.201H33.2251C33.6166 40.201 33.992 40.3565 34.2689 40.6333C34.5457 40.9101 34.7012 41.2855 34.7012 41.677C34.7012 42.0685 34.5457 42.4439 34.2689 42.7208C33.992 42.9976 33.6166 43.1531 33.2251 43.1531H9.60815C9.21667 43.1531 8.84123 42.9976 8.56442 42.7208C8.2876 42.4439 8.13209 42.0685 8.13209 41.677C8.13209 41.2855 8.2876 40.9101 8.56442 40.6333C8.84123 40.3565 9.21667 40.201 9.60815 40.201H13.318L13.749 38.0499C13.9051 37.269 14.3268 36.5664 14.9426 36.0616C15.5583 35.5567 16.33 35.2808 17.1262 35.2808H19.9406V31.2836C17.5041 31.075 15.4435 30.3428 13.7214 29.1896C11.716 27.8434 10.2576 25.9816 9.19485 23.8934L3.99912 21.0063C3.38773 20.6817 2.79205 20.3283 2.21407 19.9474C1.66975 19.5938 1.2112 19.1231 0.871839 18.5698C0.552181 18.0041 0.363217 17.374 0.318808 16.7257C0.259766 16.1412 0.259766 15.4425 0.259766 14.6513V14.366C0.259766 13.4055 0.259766 12.5632 0.338489 11.8685C0.425084 11.1186 0.61402 10.3924 1.0962 9.7272C1.57641 9.06002 2.20423 8.65066 2.88715 8.32986C3.52284 8.03465 4.32189 7.76896 5.23311 7.46587L6.2014 7.14311C6.26241 5.91109 6.53007 4.80896 7.35863 3.78753C8.65166 2.19535 10.3029 1.91785 12.2926 1.58721L12.5563 1.54195ZM16.3291 40.201H26.5041L26.1892 38.6285C26.1669 38.517 26.1067 38.4166 26.0188 38.3445C25.9309 38.2724 25.8208 38.233 25.7071 38.2329H17.1262C17.0125 38.233 16.9023 38.2724 16.8144 38.3445C16.7265 38.4166 16.6663 38.517 16.644 38.6285L16.3291 40.201ZM6.26635 10.233C6.40805 13.2245 6.74459 16.5309 7.58693 19.6207L5.48896 18.4576C4.72337 18.0305 4.24316 17.7629 3.89678 17.5228C3.57795 17.3004 3.47364 17.1685 3.41657 17.0701C3.35753 16.9717 3.29455 16.8182 3.25519 16.4325C3.21346 15.818 3.19901 15.2021 3.21189 14.5864V14.4427C3.21189 13.3819 3.21386 12.7108 3.27093 12.203C3.32604 11.7346 3.41263 11.5595 3.49135 11.4532C3.56811 11.345 3.70588 11.2072 4.13295 11.0084C4.59742 10.7919 5.23507 10.5774 6.2388 10.2409L6.26635 10.233ZM35.2463 19.6207L37.3443 18.4576C38.1099 18.0305 38.5901 17.7629 38.9365 17.5228C39.2553 17.3004 39.3596 17.1685 39.4167 17.0701C39.4757 16.9717 39.5387 16.8182 39.5781 16.4325C39.6194 16.0113 39.6214 15.4622 39.6214 14.5864V14.4427C39.6214 13.3819 39.6194 12.7108 39.5623 12.203C39.5072 11.7346 39.4206 11.5595 39.3419 11.4532C39.2652 11.345 39.1274 11.2072 38.7003 11.0084C38.2359 10.7919 37.5982 10.5774 36.5945 10.2409L36.5669 10.233C36.4272 13.2245 36.0867 16.5309 35.2463 19.6207ZM21.4166 3.79146C17.9922 3.79146 15.1837 4.09258 13.0484 4.45274C10.6729 4.85423 10.175 5.0038 9.65145 5.64933C9.13581 6.28305 9.08661 6.88529 9.19092 9.55204C9.36804 13.996 9.95453 18.7941 11.7691 22.443C12.6665 24.2418 13.8395 25.7139 15.3668 26.7373C16.8822 27.7548 18.8404 28.3925 21.4166 28.3925C23.9948 28.3925 25.9511 27.7548 27.4685 26.7373C28.9957 25.7139 30.1667 24.2418 31.0622 22.441C32.8787 18.7941 33.4652 13.9979 33.6404 9.55007C33.7486 6.88529 33.6994 6.28305 33.1838 5.64933C32.6603 5.0038 32.1604 4.85423 29.7849 4.45274C27.0187 4.00016 24.2196 3.77897 21.4166 3.79146Z" fill="#459214"/>
</svg>
