<svg width="39" height="27" viewBox="0 0 39 27" fill="none" xmlns="http://www.w3.org/2000/svg">
<g id="Payment Method/Visa">
<rect id="BASE" x="0.275093" y="0.275093" width="37.9628" height="25.8587" rx="3.02602" fill="white" stroke="#D9D9D9" strokeWidth="0.550186"/>
<path id="visa-logo" fillRule="evenodd" clipRule="evenodd" d="M11.6917 17.8902H9.35858L7.60901 11.2155C7.52596 10.9084 7.34964 10.637 7.09028 10.5091C6.44301 10.1876 5.72975 9.93171 4.95166 9.80267V9.54569H8.71017C9.2289 9.54569 9.61794 9.93171 9.68278 10.38L10.5906 15.1947L12.9226 9.54569H15.1909L11.6917 17.8902ZM16.4877 17.8902H14.2843L16.0987 9.54569H18.3021L16.4877 17.8902ZM21.1528 11.8574C21.2176 11.408 21.6067 11.151 22.0606 11.151C22.7738 11.0865 23.5508 11.2155 24.1992 11.5359L24.5882 9.73929C23.9398 9.48232 23.2266 9.35327 22.5793 9.35327C20.4407 9.35327 18.8845 10.5091 18.8845 12.1133C18.8845 13.3336 19.9868 13.9744 20.7649 14.3604C21.6067 14.7453 21.9309 15.0023 21.866 15.3872C21.866 15.9646 21.2176 16.2216 20.5703 16.2216C19.7923 16.2216 19.0142 16.0291 18.302 15.7076L17.913 17.5053C18.6911 17.8257 19.5329 17.9548 20.311 17.9548C22.709 18.0182 24.1992 16.8634 24.1992 15.1302C24.1992 12.9476 21.1528 12.8197 21.1528 11.8574ZM31.9108 17.8902L30.1612 9.54569H28.282C27.8929 9.54569 27.5039 9.80267 27.3742 10.1876L24.1344 17.8902H26.4027L26.8555 16.6709H29.6425L29.9019 17.8902H31.9108ZM28.6062 11.7929L29.2534 14.9378H27.439L28.6062 11.7929Z" fill="#172B85"/>
</g>
</svg>
