<svg width="190" height="190" viewBox="0 0 190 190" fill="none" xmlns="http://www.w3.org/2000/svg">
<g id="Bold Duotone / Weather / Moon Stars" opacity="0.05">
<g id="Vector">
<path d="M157.543 18.2652C156.269 15.0226 151.697 15.0226 150.422 18.2652L147.015 26.9362C146.626 27.9261 145.846 28.7098 144.859 29.1002L136.22 32.52C132.99 33.7989 132.99 38.3879 136.22 39.6667L144.859 43.0865C145.846 43.4769 146.626 44.2606 147.015 45.2505L150.422 53.9216C151.697 57.1641 156.269 57.1641 157.543 53.9216L160.95 45.2506C161.339 44.2606 162.12 43.4769 163.106 43.0865L171.745 39.6667C174.976 38.3879 174.976 33.7989 171.745 32.52L163.106 29.1002C162.12 28.7098 161.339 27.9261 160.95 26.9362L157.543 18.2652Z" fill="black"/>
<path d="M126.926 64.3598C125.652 61.1173 121.08 61.1173 119.806 64.3598L118.564 67.5213C118.175 68.5113 117.394 69.2949 116.408 69.6854L113.258 70.9322C110.027 72.2111 110.027 76.8001 113.258 78.0789L116.408 79.3258C117.394 79.7162 118.175 80.4999 118.564 81.4898L119.806 84.6513C121.08 87.8939 125.652 87.8939 126.926 84.6513L128.169 81.4898C128.558 80.4999 129.338 79.7162 130.325 79.3258L133.474 78.0789C136.705 76.8001 136.705 72.2111 133.474 70.9322L130.325 69.6854C129.338 69.2949 128.558 68.5113 128.169 67.5213L126.926 64.3598Z" fill="black"/>
</g>
<path id="Vector_2" opacity="0.5" d="M94.9997 174.167C138.722 174.167 174.166 138.722 174.166 94.9999C174.166 91.3369 168.676 90.7315 166.782 93.8666C157.771 108.78 141.404 118.75 122.708 118.75C94.2884 118.75 71.2497 95.7112 71.2497 67.2916C71.2497 48.596 81.2197 32.2291 96.133 23.2176C99.2681 21.3232 98.6627 15.8333 94.9997 15.8333C51.2771 15.8333 15.833 51.2774 15.833 94.9999C15.833 138.722 51.2771 174.167 94.9997 174.167Z" fill="black"/>
</g>
</svg>
