<svg width="33" height="33" viewBox="0 0 33 33" fill="none" xmlns="http://www.w3.org/2000/svg">
<g id="bars-level 1" clip-path="url(#clip0_469_4461)">
<g id="Group">
<g id="Group_2">
<g id="Group_3">
<path id="Vector" d="M18.3261 32.2532H13.879C12.7518 32.2532 11.833 31.3344 11.833 30.2072V7.60256C11.833 6.4754 12.7498 5.55859 13.879 5.55859H18.3261C19.4532 5.55859 20.37 6.4754 20.37 7.60256V30.2072C20.37 31.3344 19.4532 32.2532 18.3261 32.2532ZM14.8097 29.2765H17.3934V8.53524H14.8097V29.2765Z" fill="#C73E00" stroke="#FAECE6" stroke-width="0.533055"/>
</g>
<g id="Group_4">
<path id="Vector_2" d="M7.90713 32.2521H3.46001C2.33286 32.2521 1.41406 31.3333 1.41406 30.2061V16.5314C1.41406 15.4042 2.33087 14.4874 3.46001 14.4874H7.90713C9.03429 14.4874 9.9511 15.4042 9.9511 16.5314V30.2061C9.9511 31.3333 9.03429 32.2521 7.90713 32.2521ZM4.39071 29.2754H6.97445V17.4641H4.39071V29.2754Z" fill="#C73E00" stroke="#FAECE6" stroke-width="0.533055"/>
</g>
<g id="Group_5">
<path id="Vector_3" d="M28.7938 32.253H24.3487C23.2215 32.253 22.3047 31.3342 22.3047 30.207V2.04397C22.3047 0.916808 23.2215 0 24.3487 0H28.7938C29.919 0 30.8358 0.916808 30.8358 2.04397V30.207C30.8378 31.3342 29.9209 32.253 28.7938 32.253ZM25.2813 29.2763H27.8611V2.97665H25.2813V29.2763Z" fill="#C73E00" stroke="#FAECE6" stroke-width="0.533055"/>
</g>
</g>
</g>
</g>
<defs>
<clipPath id="clip0_469_4461">
<rect width="32.253" height="32.253" fill="white"/>
</clipPath>
</defs>
</svg>
