<svg width="35" height="35" viewBox="0 0 35 35" fill="none"
  xmlns="http://www.w3.org/2000/svg">
  <g id="Group">
    <path id="Vector" fill-rule="evenodd" clip-rule="evenodd" d="M10.1842 0.612377C12.6025 0.215966 15.0495 0.021919 17.5 0.0322522C20.4705 0.0322522 22.9259 0.293877 24.8158 0.612377L25.0351 0.649752C26.6764 0.924377 28.0414 1.1535 29.1074 2.4665C29.7915 3.30988 30.0125 4.2215 30.0629 5.23713L30.8624 5.50363C31.6147 5.75388 32.2761 5.97488 32.7977 6.21863C33.3632 6.48188 33.8816 6.81988 34.2781 7.37075C34.6746 7.92 34.8322 8.51963 34.9037 9.13875C34.9687 9.71238 34.9687 10.4063 34.9687 11.2025V11.4365C34.9687 12.0898 34.9687 12.6666 34.92 13.1493C34.868 13.6709 34.7526 14.1795 34.465 14.6703C34.1741 15.1626 33.7857 15.5104 33.3551 15.8094C32.957 16.0856 32.4532 16.3668 31.8812 16.6836L27.5912 19.0675C26.7137 20.7916 25.5112 22.3289 23.8537 23.4388C22.4319 24.3926 20.7305 24.9971 18.7187 25.1694V28.4697H21.0425C21.6999 28.4698 22.3371 28.6976 22.8455 29.1144C23.3539 29.5313 23.7021 30.1114 23.831 30.7561L24.1869 32.5322H27.25C27.5732 32.5322 27.8832 32.6607 28.1118 32.8892C28.3403 33.1178 28.4687 33.4278 28.4687 33.751C28.4687 34.0742 28.3403 34.3842 28.1118 34.6128C27.8832 34.8413 27.5732 34.9697 27.25 34.9697H7.75C7.42677 34.9697 7.11677 34.8413 6.88821 34.6128C6.65965 34.3842 6.53125 34.0742 6.53125 33.751C6.53125 33.4278 6.65965 33.1178 6.88821 32.8892C7.11677 32.6607 7.42677 32.5322 7.75 32.5322H10.8131L11.169 30.7561C11.2979 30.1114 11.6461 29.5313 12.1545 29.1144C12.6629 28.6976 13.3001 28.4698 13.9575 28.4697H16.2812V25.1694C14.2695 24.9971 12.5681 24.3926 11.1462 23.4404C9.49037 22.3289 8.28625 20.7916 7.40875 19.0675L3.11875 16.6836C2.61394 16.4156 2.1221 16.1239 1.64487 15.8094C1.19544 15.5174 0.816829 15.1288 0.536625 14.6719C0.272691 14.2048 0.116668 13.6845 0.0799999 13.1493C0.03125 12.6666 0.03125 12.0898 0.03125 11.4365V11.2009C0.03125 10.4079 0.0312499 9.71238 0.0962499 9.13875C0.16775 8.51963 0.32375 7.92 0.721875 7.37075C1.11837 6.81988 1.63675 6.48188 2.20062 6.217C2.7255 5.97325 3.38525 5.75388 4.13762 5.50363L4.93712 5.23713C4.9875 4.21988 5.2085 3.30988 5.89262 2.4665C6.96025 1.15188 8.32362 0.922752 9.9665 0.649752L10.1842 0.612377ZM13.2994 32.5322H21.7006L21.4406 31.2339C21.4222 31.1418 21.3725 31.059 21.2999 30.9994C21.2273 30.9399 21.1364 30.9073 21.0425 30.9072H13.9575C13.8636 30.9073 13.7727 30.9399 13.7001 30.9994C13.6275 31.059 13.5778 31.1418 13.5594 31.2339L13.2994 32.5322ZM4.99075 7.78838C5.10775 10.2584 5.38562 12.9884 6.08112 15.5396L4.34887 14.5793C3.71675 14.2266 3.32025 14.0056 3.03425 13.8074C2.771 13.6238 2.68488 13.5149 2.63775 13.4336C2.589 13.3524 2.537 13.2256 2.5045 12.9071C2.47005 12.3998 2.45812 11.8912 2.46875 11.3829V11.2643C2.46875 10.3884 2.47037 9.83425 2.5175 9.415C2.563 9.02825 2.6345 8.88363 2.6995 8.79588C2.76287 8.7065 2.87662 8.59275 3.22925 8.42863C3.61275 8.24988 4.13925 8.07275 4.968 7.79488L4.99075 7.78838ZM28.9189 15.5396L30.6511 14.5793C31.2832 14.2266 31.6797 14.0056 31.9657 13.8074C32.229 13.6238 32.3151 13.5149 32.3622 13.4336C32.411 13.3524 32.463 13.2256 32.4955 12.9071C32.5296 12.5594 32.5312 12.106 32.5312 11.3829V11.2643C32.5312 10.3884 32.5296 9.83425 32.4825 9.415C32.437 9.02825 32.3655 8.88363 32.3005 8.79588C32.2371 8.7065 32.1234 8.59275 31.7707 8.42863C31.3872 8.24988 30.8607 8.07275 30.032 7.79488L30.0092 7.78838C29.8939 10.2584 29.6127 12.9884 28.9189 15.5396ZM17.5 2.46975C14.6725 2.46975 12.3536 2.71838 10.5905 3.01575C8.62912 3.34725 8.218 3.47075 7.78575 4.00375C7.36 4.527 7.31937 5.02425 7.4055 7.22613C7.55175 10.8954 8.036 14.8571 9.53425 17.8699C10.2752 19.3551 11.2437 20.5706 12.5047 21.4156C13.756 22.2558 15.3729 22.7823 17.5 22.7823C19.6287 22.7823 21.244 22.2558 22.4969 21.4156C23.7579 20.5706 24.7247 19.3551 25.4641 17.8683C26.964 14.8571 27.4482 10.897 27.5929 7.2245C27.6822 5.02425 27.6416 4.527 27.2159 4.00375C26.7836 3.47075 26.3709 3.34725 24.4095 3.01575C22.1255 2.64207 19.8143 2.45944 17.5 2.46975Z" fill="#FFFFFF38"/>
  </g>
</svg>
