<svg width="20" height="20" viewBox="0 0 20 20" fill="none" xmlns="http://www.w3.org/2000/svg">
<g id="Bold / Essentional, UI / Copy">
<path id="Vector" d="M12.7 1.66663H9.45487C7.98466 1.66661 6.82015 1.6666 5.90878 1.78963C4.97084 1.91624 4.21169 2.183 3.613 2.78409C3.0143 3.38519 2.74861 4.14739 2.62251 5.0891C2.49998 6.00413 2.49999 7.17331 2.5 8.64941V13.514C2.5 14.7708 3.26663 15.8478 4.35597 16.2993C4.2999 15.5414 4.29995 14.478 4.3 13.5933L4.3 9.49795L4.3 9.41864C4.29994 8.35058 4.29989 7.43032 4.39857 6.69338C4.50433 5.90361 4.74282 5.14656 5.35442 4.53251C5.96601 3.91846 6.72003 3.679 7.50665 3.57282C8.24064 3.47374 9.15722 3.47379 10.221 3.47385L10.3 3.47386H12.7L12.779 3.47385C13.8428 3.47379 14.7574 3.47374 15.4914 3.57282C15.0523 2.45645 13.968 1.66663 12.7 1.66663Z" fill="white"/>
<g id="Vector_2">
<path d="M5.5 9.49787C5.5 7.22604 5.5 6.09012 6.20294 5.38436C6.90589 4.67859 8.03726 4.67859 10.3 4.67859H12.7C14.9627 4.67859 16.0941 4.67859 16.7971 5.38436C17.5 6.09012 17.5 7.22604 17.5 9.49787V13.5139C17.5 15.7858 17.5 16.9217 16.7971 17.6274C16.0941 18.3332 14.9627 18.3332 12.7 18.3332H10.3C8.03726 18.3332 6.90589 18.3332 6.20294 17.6274C5.5 16.9217 5.5 15.7858 5.5 13.5139V9.49787Z" fill="white"/>
</g>
</g>
</svg>
