<svg width="55" height="55" viewBox="0 0 55 55" fill="none" xmlns="http://www.w3.org/2000/svg">
<g clip-path="url(#clip0_1002_8925)">
<path d="M54.7021 10.0121V48.0689H51.5305V51.2406H48.3588V54.4122H7.13141V51.2406H3.95975V48.0689H0.788086V10.0121H3.95975V6.8415H10.302V3.66983H13.4737V0.498169H16.6453V3.66983H19.817V6.8415H22.9876V3.66983H26.1593V0.498169H29.3309V3.66983H32.5026V6.8415H35.6732V3.66983H38.8449V0.498169H42.0165V3.66983H45.1882V6.8415H51.5305V10.0121H54.7021Z" fill="black"/>
<path d="M51.5278 44.8972V48.0678H48.3561V51.2395H7.12869V48.0678H3.95703V44.8972L5.54286 43.3114L7.12869 44.8972L8.714 46.4825H46.7708L48.3561 44.8972L49.9419 43.3114L51.5278 44.8972Z" fill="#ECC372"/>
<path d="M38.8418 3.66968H42.0135V10.012H38.8418V3.66968Z" fill="#FFE8CB"/>
<path d="M51.5278 19.5266V41.7262L48.3561 44.8978L46.7708 46.4831H8.714L7.12869 44.8978L3.95703 41.7262V19.5266L5.54286 17.9408H49.9419L51.5278 19.5266Z" fill="#FFE8CB"/>
<path d="M26.1562 3.66968H29.3279V10.012H26.1562V3.66968Z" fill="#FFE8CB"/>
<path d="M13.4717 3.6698H16.6433V10.0121H13.4717V3.6698Z" fill="#FFE8CB"/>
<path d="M42.0164 29.0402H45.1881V32.2119H42.0164V38.5542H38.8448V41.7258H35.6731V38.5542H32.5025V35.3825H29.3308V32.2119H26.1592V25.8686H29.3308V22.6969H38.8448V25.8686H42.0164V29.0402Z" fill="#952A3A"/>
<path d="M19.8167 25.8686H22.9874V38.5542H19.8167V41.7258H16.6451V38.5542H13.4734V29.0402H10.3018V25.8686H13.4734V22.6969H19.8167V25.8686Z" fill="#952A3A"/>
<path d="M38.8411 29.0404L40.4269 30.6263L38.8411 32.2121V38.5544H35.6694V32.2121H29.3271V29.0404L31.0142 27.3534L32.4988 29.0404H35.6694L37.2553 27.4546L38.8411 29.0404Z" fill="#FF6379"/>
<path d="M51.5278 13.1839V16.3555L49.9419 17.9413H5.54286L3.95703 16.3555V13.1839L5.77958 11.598H11.5796L13.471 13.1839H16.6426L18.4096 11.598H24.4264L26.1566 13.1839H29.3282L31.0937 11.598H37.2563L38.8422 13.1839H42.0138L43.7237 11.598H49.6864L51.5278 13.1839Z" fill="#FF6379"/>
<path d="M19.8123 29.0405V38.5544H16.6406V29.0405L18.1481 27.2305L19.8123 29.0405Z" fill="#FF6379"/>
<path d="M3.95801 41.7256H7.12967V44.8972H3.95801V41.7256Z" fill="#AF8546"/>
<path d="M7.12988 44.8973H48.3573V48.068H7.12988V44.8973Z" fill="#AF8546"/>
<path d="M48.3564 41.7256H51.5281V44.8972H48.3564V41.7256Z" fill="#AF8546"/>
<path d="M3.95801 16.3551H51.5287V19.5268H3.95801V16.3551Z" fill="#952A3A"/>
<path d="M16.6416 10.0121H26.1555V13.1837H16.6416V10.0121Z" fill="#FFA6B2"/>
<path d="M29.3281 25.8688H32.4998V29.0404H29.3281V25.8688Z" fill="#FFA6B2"/>
<path d="M13.4707 25.8688H19.814V29.0404H13.4707V25.8688Z" fill="#FFA6B2"/>
<path d="M42.0127 10.0121H51.5266V13.1837H42.0127V10.0121Z" fill="#FFA6B2"/>
<path d="M38.8428 29.0403H42.0144V32.2119H38.8428V29.0403Z" fill="#FFA6B2"/>
<path d="M3.95801 10.0122H13.4719V13.1839H3.95801V10.0122Z" fill="#FFA6B2"/>
<path d="M35.6699 25.8688H38.8416V29.0404H35.6699V25.8688Z" fill="#FFA6B2"/>
<path d="M29.3281 10.0121H38.8421V13.1837H29.3281V10.0121Z" fill="#FFA6B2"/>
</g>
<defs>
<clipPath id="clip0_1002_8925">
<rect width="53.9141" height="53.9141" fill="white" transform="translate(0.787109 0.498047)"/>
</clipPath>
</defs>
</svg>
