<svg width="61" height="53" viewBox="0 0 61 53" fill="none" xmlns="http://www.w3.org/2000/svg">
<g clip-path="url(#clip0_1002_8583)">
<path d="M6.11426 29.8549H26.1719V32.7202H6.11426V29.8549Z" fill="#B9745B"/>
<path d="M6.11426 38.451H26.1719V41.3164H6.11426V38.451Z" fill="#B9745B"/>
<path d="M3.24805 32.7203H6.11342V38.4511H3.24805V32.7203Z" fill="#B9745B"/>
<path d="M26.1699 32.7203H29.0353V38.4511H26.1699V32.7203Z" fill="#B9745B"/>
<path d="M6.11426 21.2588H26.1719V24.1242H6.11426V21.2588Z" fill="#B9745B"/>
<path d="M3.24805 24.1241H6.11342V29.8549H3.24805V24.1241Z" fill="#B9745B"/>
<path d="M26.1699 24.1241H29.0353V29.8549H26.1699V24.1241Z" fill="#B9745B"/>
<path d="M6.11426 47.0471H26.1719V49.9125H6.11426V47.0471Z" fill="#9B5044"/>
<path d="M3.24805 41.3164H6.11342V47.0472H3.24805V41.3164Z" fill="#B9745B"/>
<path d="M26.1699 41.3164H29.0353V47.0472H26.1699V41.3164Z" fill="#9B5044"/>
<path d="M34.7676 29.8549H54.8252V32.7202H34.7676V29.8549Z" fill="#B9745B"/>
<path d="M34.7676 38.451H54.8252V41.3164H34.7676V38.451Z" fill="#B9745B"/>
<path d="M31.9014 32.7203H34.7667V38.4511H31.9014V32.7203Z" fill="#B9745B"/>
<path d="M54.8262 32.7203H57.6915V38.4511H54.8262V32.7203Z" fill="#B9745B"/>
<path d="M34.7676 21.2588H54.8252V24.1242H34.7676V21.2588Z" fill="#B9745B"/>
<path d="M31.9014 24.1241H34.7667V29.8549H31.9014V24.1241Z" fill="#B9745B"/>
<path d="M54.8262 24.1241H57.6915V29.8549H54.8262V24.1241Z" fill="#B9745B"/>
<path d="M34.7676 12.6626H54.8252V15.528H34.7676V12.6626Z" fill="#B9745B"/>
<path d="M31.9014 15.5279H34.7667V21.2586H31.9014V15.5279Z" fill="#B9745B"/>
<path d="M54.8262 15.5279H57.6915V21.2586H54.8262V15.5279Z" fill="#B9745B"/>
<path d="M34.7676 47.0471H54.8252V49.9125H34.7676V47.0471Z" fill="#9B5044"/>
<path d="M31.9014 41.3164H34.7667V47.0472H31.9014V41.3164Z" fill="#B9745B"/>
<path d="M54.8262 41.3164H57.6915V47.0472H54.8262V41.3164Z" fill="#9B5044"/>
<path d="M60.5566 32.7203H63.422V38.4511H60.5566V32.7203Z" fill="#B9745B"/>
<path d="M60.5566 41.3164H63.422V47.0472H60.5566V41.3164Z" fill="#B9745B"/>
<path d="M6.11426 24.1241H26.1719V29.8549H6.11426V24.1241Z" fill="#E5CB8E"/>
<path d="M6.11426 32.7203H26.1719V38.4511H6.11426V32.7203Z" fill="#E5CB8E"/>
<path d="M6.11426 41.3164H26.1719V47.0472H6.11426V41.3164Z" fill="#E5CB8E"/>
<path d="M34.7676 24.1241H54.8252V29.8549H34.7676V24.1241Z" fill="#E5CB8E"/>
<path d="M34.7676 15.5279H54.8252V21.2586H34.7676V15.5279Z" fill="#E5CB8E"/>
<path d="M34.7676 32.7203H54.8252V38.4511H34.7676V32.7203Z" fill="#E5CB8E"/>
<path d="M34.7676 41.3164H54.8252V47.0472H34.7676V41.3164Z" fill="#E5CB8E"/>
<path d="M6.11426 32.7203H8.97964V38.4511H6.11426V32.7203Z" fill="#FAF9C6"/>
<path d="M6.11426 41.3164H8.97964V47.0472H6.11426V41.3164Z" fill="#FAF9C6"/>
<path d="M11.8447 32.7203H17.5755V38.4511H11.8447V32.7203Z" fill="#FAF9C6"/>
<path d="M43.3633 15.5279H46.2287V21.2586H43.3633V15.5279Z" fill="#FAF9C6"/>
<path d="M11.8447 41.3164H17.5755V47.0472H11.8447V41.3164Z" fill="#FAF9C6"/>
<path d="M23.3057 32.7203H26.171V38.4511H23.3057V32.7203Z" fill="#D5A57D"/>
<path d="M6.11426 24.1241H8.97964V29.8549H6.11426V24.1241Z" fill="#FAF9C6"/>
<path d="M34.7676 15.5279H40.4983V21.2586H34.7676V15.5279Z" fill="#FAF9C6"/>
<path d="M11.8447 24.1241H17.5755V29.8549H11.8447V24.1241Z" fill="#FAF9C6"/>
<path d="M23.3057 24.1241H26.171V29.8549H23.3057V24.1241Z" fill="#D5A57D"/>
<path d="M23.3057 41.3164H26.171V47.0472H23.3057V41.3164Z" fill="#D5A57D"/>
<path d="M49.0918 15.5279H54.8226V21.2586H49.0918V15.5279Z" fill="#D5A57D"/>
<path d="M43.3633 24.1241H46.2287V29.8549H43.3633V24.1241Z" fill="#FAF9C6"/>
<path d="M34.7676 24.1241H40.4983V29.8549H34.7676V24.1241Z" fill="#FAF9C6"/>
<path d="M49.0918 24.1241H54.8226V29.8549H49.0918V24.1241Z" fill="#D5A57D"/>
<path d="M43.3633 32.7203H46.2287V38.4511H43.3633V32.7203Z" fill="#FAF9C6"/>
<path d="M34.7676 32.7203H40.4983V38.4511H34.7676V32.7203Z" fill="#FAF9C6"/>
<path d="M49.0918 32.7203H54.8226V38.4511H49.0918V32.7203Z" fill="#D5A57D"/>
<path d="M43.3633 41.3164H46.2287V47.0472H43.3633V41.3164Z" fill="#FAF9C6"/>
<path d="M34.7676 41.3164H40.4983V47.0472H34.7676V41.3164Z" fill="#FAF9C6"/>
<path d="M49.0918 41.3164H54.8226V47.0472H49.0918V41.3164Z" fill="#D5A57D"/>
</g>
<defs>
<clipPath id="clip0_1002_8583">
<rect width="60.4453" height="52.6098" fill="white" transform="translate(0.199219 0.0534058)"/>
</clipPath>
</defs>
</svg>
