<svg width="56" height="67" viewBox="0 0 56 67" fill="none" xmlns="http://www.w3.org/2000/svg">
<g clip-path="url(#clip0_1002_9188)">
<path d="M40.4495 15.4327H36.7723V11.7555H18.3862V15.4327H14.709V33.8188H18.3862V37.496H36.7723V33.8188H40.4495V15.4327Z" fill="#E5CB8E"/>
<path d="M25.7402 41.1732H29.4175V66.9137H25.7402V41.1732Z" fill="#4F8F82"/>
<path d="M11.0312 15.4326H14.7085V33.8187H11.0312V15.4326Z" fill="#B9745B"/>
<path d="M40.4492 15.4326H44.1264V33.8187H40.4492V15.4326Z" fill="#9B5044"/>
<path d="M18.3867 8.07825H36.7728V11.7555H18.3867V8.07825Z" fill="#B9745B"/>
<path d="M18.3867 37.496H36.7728V41.1732H18.3867V37.496Z" fill="#9B5044"/>
<path d="M14.709 33.8187H18.3862V37.4959H14.709V33.8187Z" fill="#B9745B"/>
<path d="M36.7715 33.8187H40.4487V37.4959H36.7715V33.8187Z" fill="#9B5044"/>
<path d="M14.709 11.7555H18.3862V15.4327H14.709V11.7555Z" fill="#B9745B"/>
<path d="M36.7715 11.7555H40.4487V15.4327H36.7715V11.7555Z" fill="#B9745B"/>
<path d="M25.7402 15.4326H29.4175V19.1098H25.7402V15.4326Z" fill="#B9745B"/>
<path d="M29.418 19.1099H33.0952V22.7871H29.418V19.1099Z" fill="#9B5044"/>
<path d="M29.418 26.4642H33.0952V30.1414H29.418V26.4642Z" fill="#9B5044"/>
<path d="M25.7402 30.1415H29.4175V33.8187H25.7402V30.1415Z" fill="#9B5044"/>
<path d="M22.0625 19.1099H25.7397V30.1415H22.0625V19.1099Z" fill="#B9745B"/>
<path d="M29.417 59.5591H36.7714V63.2363H29.417V59.5591Z" fill="#4F8F82"/>
<path d="M36.7715 55.8818H44.1259V59.5591H36.7715V55.8818Z" fill="#4F8F82"/>
<path d="M33.0947 44.8503H40.4492V48.5276H33.0947V44.8503Z" fill="#4F8F82"/>
<path d="M47.8037 41.1731H51.4809V52.2047H47.8037V41.1731Z" fill="#4F8F82"/>
<path d="M40.4482 41.1731H47.8027V44.8503H40.4482V41.1731Z" fill="#4F8F82"/>
<path d="M29.417 48.5276H33.0942V52.2048H29.417V48.5276Z" fill="#4F8F82"/>
<path d="M44.126 52.2047H47.8032V55.8819H44.126V52.2047Z" fill="#4F8F82"/>
<path d="M25.7393 63.2363H18.3848V59.5591H25.7393V63.2363Z" fill="#4F8F82"/>
<path d="M18.3857 59.5591H11.0313V55.8819H18.3857V59.5591Z" fill="#4F8F82"/>
<path d="M22.0625 48.5276H14.7081V44.8504H22.0625V48.5276Z" fill="#4F8F82"/>
<path d="M7.35449 52.2047H3.67728V41.1731H7.35449V52.2047Z" fill="#4F8F82"/>
<path d="M14.708 44.8503H7.35358V41.1731H14.708V44.8503Z" fill="#4F8F82"/>
<path d="M25.7393 52.2047H22.062V48.5275H25.7393V52.2047Z" fill="#4F8F82"/>
<path d="M11.0303 55.8818H7.35306V52.2046H11.0303V55.8818Z" fill="#4F8F82"/>
<path d="M22.0634 52.2049V48.5277H14.7089V44.8505H7.35449V52.2049H11.0317V55.8821H18.3861V59.5593H25.7406V52.2049H22.0634Z" fill="#B6DFBB"/>
<path d="M47.8041 44.8505H40.4496V48.5277H33.0952V52.2049H29.418V59.5593H36.7724V55.8821H44.1268V52.2049H47.8041V44.8505Z" fill="#B6DFBB"/>
<path d="M33.0957 55.882H36.7729V59.5592H33.0957V55.882Z" fill="#7AB393"/>
<path d="M18.3867 55.882H22.0639V59.5592H18.3867V55.882Z" fill="#7AB393"/>
<path d="M11.0312 52.2047H18.3857V55.8819H11.0312V52.2047Z" fill="#7AB393"/>
<path d="M36.7715 52.2047H44.1259V55.8819H36.7715V52.2047Z" fill="#7AB393"/>
<path d="M7.35449 48.5276H11.0317V52.2048H7.35449V48.5276Z" fill="#7AB393"/>
<path d="M44.127 48.5276H47.8042V52.2048H44.127V48.5276Z" fill="#7AB393"/>
<path d="M14.709 15.4326H18.3862V26.4643H14.709V15.4326Z" fill="#FAF9C6"/>
<path d="M18.3867 11.7555H22.0639V15.4327H18.3867V11.7555Z" fill="#FAF9C6"/>
<path d="M36.7715 22.787H40.4487V33.8186H36.7715V22.787Z" fill="#D5A57D"/>
<path d="M33.0957 33.8187H36.7729V37.4959H33.0957V33.8187Z" fill="#D5A57D"/>
</g>
<defs>
<clipPath id="clip0_1002_9188">
<rect width="55.1582" height="66.1899" fill="white" transform="translate(0 0.723755)"/>
</clipPath>
</defs>
</svg>
