<svg width="53" height="53" viewBox="0 0 53 53" fill="none" xmlns="http://www.w3.org/2000/svg">
<g clip-path="url(#clip0_1002_9025)">
<path d="M52.5898 0.541016V37.5231H46.4256V40.6052H40.2625V43.6873H21.7709V40.6052H15.6077V37.5231H9.44352V49.8505H6.36244V52.9326H3.28034V49.8505H0.198242V3.62312H3.28034V0.541016H15.6077V3.62312H21.7709V6.70521H40.2625V3.62312H46.4256V0.541016L52.5898 0.541016Z" fill="black"/>
<path d="M4.8223 5.16431L6.36335 6.70536V49.8507H3.28125V6.70536L4.8223 5.16431Z" fill="#8E562F"/>
<path d="M49.5095 6.70536V31.3601L46.4274 34.4412L40.2643 37.5233L39.0935 39.0643L23.3658 39.0156L21.7727 37.5233L15.6095 34.4412L9.44531 31.3601V6.70536L10.4635 5.16431H14.0685L15.6095 6.70536L21.7727 9.78643L23.3907 11.3275H38.7799L40.2643 9.78643L46.4274 6.70536L47.9685 5.16431L49.5095 6.70536Z" fill="#ECC372"/>
<path d="M40.2631 19.0328V25.196H37.181V28.2781H34.0989V31.3602H31.0178V34.4412H27.9357V31.3602H24.8536V28.2781H21.7715V25.196H18.6904V19.0328H21.7715V15.9507H27.9357V19.0328H31.0178V15.9507H37.181V19.0328H40.2631Z" fill="#952A3A"/>
<path d="M35.864 20.5734L37.181 22.1139V25.196H34.0989V28.2781H31.0178V31.3602H27.9357V28.2781H24.8536V25.196H21.7715V22.1139L23.2497 20.5734H26.7187L27.9357 22.1139L29.4762 23.655L31.0178 22.1139L32.5528 20.5734H35.864Z" fill="#FF6379"/>
<path d="M3.28125 3.62305H6.36335V6.70515H3.28125V3.62305Z" fill="#C8875B"/>
<path d="M21.7734 9.78625H40.265V12.8684H21.7734V9.78625Z" fill="#FFE8CB"/>
<path d="M40.2637 6.70508H46.4268V9.78615H40.2637V6.70508Z" fill="#FFE8CB"/>
<path d="M15.6094 6.70508H21.7726V9.78615H15.6094V6.70508Z" fill="#FFE8CB"/>
<path d="M9.44531 3.62305H15.6095V6.70515H9.44531V3.62305Z" fill="#FFE8CB"/>
<path d="M46.4277 3.62305H49.5098V6.70515H46.4277V3.62305Z" fill="#FFE8CB"/>
<path d="M27.9355 22.1135H31.0176V25.1956H27.9355V22.1135Z" fill="#FFA6B2"/>
<path d="M31.0186 19.0325H37.1817V22.1135H31.0186V19.0325Z" fill="#FFA6B2"/>
<path d="M21.7715 19.0325H27.9357V22.1135H21.7715V19.0325Z" fill="#FFA6B2"/>
<path d="M40.2637 34.441H46.4268V37.5231H40.2637V34.441Z" fill="#BC904F"/>
<path d="M21.7715 37.5231H40.2631V40.6052H21.7715V37.5231Z" fill="#BC904F"/>
<path d="M46.4258 31.36H49.5079V34.4411H46.4258V31.36Z" fill="#BC904F"/>
<path d="M15.6094 34.441H21.7726V37.5231H15.6094V34.441Z" fill="#BC904F"/>
<path d="M9.44434 31.36H15.6085V34.4411H9.44434V31.36Z" fill="#BC904F"/>
</g>
<defs>
<clipPath id="clip0_1002_9025">
<rect width="52.3916" height="52.3916" fill="white" transform="translate(0.199219 0.541016)"/>
</clipPath>
</defs>
</svg>
