<svg width="58" height="58" viewBox="0 0 58 58" fill="none" xmlns="http://www.w3.org/2000/svg">
<path d="M57.2656 17.3676V24.0142H53.9418V53.9266H50.6179V57.2505H7.41234V53.9266H4.0885V24.0142H0.764648V17.3676H4.0885V14.0438H14.0589V10.7199H10.7351V4.07336H14.0589V0.749512H24.0294V4.07336H27.3532V7.3972H30.6771V4.07336H34.0009V0.749512H43.9713V4.07336H47.2952V10.7199H43.9713V14.0438H53.9418V17.3676H57.2656Z" fill="black"/>
<path d="M37.3213 17.3678H40.6451V20.6916H37.3213V17.3678Z" fill="#FFD944"/>
<path d="M30.6758 7.39709H33.9996V10.7198H30.6758V7.39709Z" fill="#FFD944"/>
<path d="M27.3516 10.72H30.6754V14.0438H27.3516V10.72Z" fill="#FFD944"/>
<path d="M24.0283 7.39709H27.3522V10.7198H24.0283V7.39709Z" fill="#FFD944"/>
<path d="M17.3818 17.3678H20.7057V20.6916H17.3818V17.3678Z" fill="#FFD944"/>
<path d="M24.0281 4.07336V7.39721H17.3815L15.7195 9.05858L14.0576 7.39721V4.07336H24.0281Z" fill="#FFD944"/>
<path d="M43.9695 4.07336V7.39721L42.3075 9.05858L40.6456 7.39721H33.999V4.07336H43.9695Z" fill="#FFD944"/>
<path d="M43.9703 20.6917V33.9859L42.3084 35.5599L40.6465 33.9859V20.6917H43.9703Z" fill="#FFD944"/>
<path d="M14.0576 20.6917H17.3815V33.9859L15.7195 35.5599L14.0576 33.9859V20.6917Z" fill="#FFD944"/>
<path d="M48.9551 52.1865H9.07227V41.8991L10.7336 40.6324H14.0575V43.9562H17.3813V40.6324H20.7041L20.7052 27.3381L22.3665 25.6761H35.6608L37.3222 27.3381L37.3233 40.6324H40.646V43.9562H43.9699V40.6324H47.2937L48.9551 42.2943V52.1865Z" fill="#FFE8CB"/>
<path d="M37.3192 37.3085V43.9562H33.9964V47.28H30.6726V50.6027H27.3487V47.28H24.0249V43.9562H20.7021V37.3085H24.0249V33.9857H33.9964V37.3085H37.3192Z" fill="#952A3A"/>
<path d="M34.0008 40.6324V43.9562H30.677V47.2801H27.3531V43.9562H24.0293V40.6324L25.7303 38.9314L27.3531 40.6324H30.677L32.3389 38.9705L34.0008 40.6324Z" fill="#FF6379"/>
<path d="M4.08691 17.3677H14.0574V20.6915H10.7335L9.07213 22.3529H5.76969L4.08691 20.6915V17.3677Z" fill="#FF6379"/>
<path d="M53.9392 17.3678V20.6916L52.1721 22.353H48.954L47.2926 20.6916H43.9688V17.3678H53.9392Z" fill="#FF6379"/>
<path d="M33.9989 20.6916L32.4174 22.6787H25.7928L24.0273 20.6916V17.3678H33.9989V20.6916Z" fill="#FF6379"/>
<path d="M33.999 10.7198H40.6456V14.0437H33.999V10.7198Z" fill="#FF9000"/>
<path d="M17.3809 10.7198H24.0275V14.0437H17.3809V10.7198Z" fill="#FF9000"/>
<path d="M14.0586 33.9857H17.3824V40.6323H14.0586V33.9857Z" fill="#FF9000"/>
<path d="M14.0586 7.39722H17.3824V10.72H14.0586V7.39722Z" fill="#FF9000"/>
<path d="M40.6475 7.39722H43.9713V10.72H40.6475V7.39722Z" fill="#FF9000"/>
<path d="M40.6475 33.9857H43.9713V40.6323H40.6475V33.9857Z" fill="#FF9000"/>
<path d="M30.6777 37.3086H34.0016V40.6324H30.6777V37.3086Z" fill="#FFA6B2"/>
<path d="M24.0303 37.3086H27.3541V40.6324H24.0303V37.3086Z" fill="#FFA6B2"/>
<path d="M53.9405 20.6917V24.0144H50.6167L48.9553 25.6763L47.2939 24.0144V20.6917H53.9405Z" fill="#C73C50"/>
<path d="M10.7345 20.6917V24.0144L9.07311 25.6763L7.41174 24.0144H4.08789V20.6917H10.7345Z" fill="#C73C50"/>
<path d="M37.3231 20.6917V24.0144L35.6658 25.6763H22.3674L20.7061 24.0144V20.6917H37.3231Z" fill="#C73C50"/>
<path d="M20.7061 30.6619V27.3381L22.3674 25.6761H35.6658L37.3231 27.3381V30.6619H20.7061Z" fill="#ECC372"/>
<path d="M50.6177 27.3381V53.9266H7.41211V27.3381L9.07348 25.6761L10.7349 27.3381V50.6028H47.295V27.3381L48.9563 25.6761L50.6177 27.3381Z" fill="#ECC372"/>
<path d="M47.2939 24.0143H50.6167V27.3381H47.2939V24.0143Z" fill="#6E1F2A"/>
<path d="M7.41211 24.0143H10.7349V27.3381H7.41211V24.0143Z" fill="#6E1F2A"/>
<path d="M20.7061 24.0143H37.3231V27.3381H20.7061V24.0143Z" fill="#6E1F2A"/>
</svg>
