<svg width="53" height="54" viewBox="0 0 53 54" fill="none" xmlns="http://www.w3.org/2000/svg">
<g clip-path="url(#clip0_1002_9067)">
<path d="M52.9404 4.0213V50.558H49.8377V53.6608H9.50538V50.558H6.40369V41.2509H3.30097V38.1482H0.198242V35.0455H3.30097V31.9438H6.40369V28.841H3.30097V25.7383H0.198242V22.6356H3.30097V19.5339H6.40369V16.4312H3.30097V13.3284H0.198242V10.2257H3.30097V7.12403H6.40369V4.0213H9.50538V0.918579H49.8377V4.0213H52.9404Z" fill="black"/>
<path d="M49.8386 7.12399V41.2509L48.5646 42.8022L17.6641 42.9208L15.7117 41.2509L14.1603 39.6995L15.7117 38.1481L17.2631 36.5963L15.7117 35.0454L12.609 31.9437L11.0576 30.3924L12.609 28.841L15.7117 25.7383L17.2631 24.1869L15.7117 22.6356L12.609 19.5339L11.0576 17.9825L12.609 16.4311L15.7117 13.3284L17.2631 11.777L15.7117 10.2257L14.1603 8.64713L15.7117 7.12399L17.2631 5.57263H47.8794L49.8386 7.12399Z" fill="#6FBE6B"/>
<path d="M49.8382 47.4554V50.5581H9.50586V47.4554L11.0572 45.9045L48.2868 45.9046L49.8382 47.4554Z" fill="#FFE8CB"/>
<path d="M3.30078 10.2257H12.6079V13.3284H3.30078V10.2257Z" fill="#FFE8CB"/>
<path d="M3.30078 22.6356H12.6079V25.7383H3.30078V22.6356Z" fill="#FFE8CB"/>
<path d="M3.30078 35.0454H12.6079V38.1481H3.30078V35.0454Z" fill="#FFE8CB"/>
<path d="M15.71 10.2257H18.8127V13.3284H15.71V10.2257Z" fill="#4A9F46"/>
<path d="M15.71 22.6355H18.8127V25.7382H15.71V22.6355Z" fill="#4A9F46"/>
<path d="M12.6084 13.3284H15.7111V16.4311H12.6084V13.3284Z" fill="#4A9F46"/>
<path d="M12.6084 25.7382H15.7111V28.8409H12.6084V25.7382Z" fill="#4A9F46"/>
<path d="M15.7111 7.12399V10.2257H12.6084V7.12399L14.1598 5.57263L15.7111 7.12399Z" fill="#4A9F46"/>
<path d="M12.6084 31.9437H15.7111V35.0454H12.6084V31.9437Z" fill="#4A9F46"/>
<path d="M12.6084 19.5338H15.7111V22.6355H12.6084V19.5338Z" fill="#4A9F46"/>
<path d="M15.71 35.0454H18.8127V38.1481H15.71V35.0454Z" fill="#4A9F46"/>
<path d="M9.50488 16.431H12.6076V19.5338H9.50488V16.431Z" fill="#4A9F46"/>
<path d="M49.8372 41.2508V44.3535L48.2858 45.9044H11.0562L9.50488 44.3535V41.2508H12.6076V38.1481H15.7103V41.2508H21.9147L23.4661 39.6994H29.671L31.2229 41.2508H34.3246L35.8765 39.6994H42.0307L43.6328 41.2508H49.8372Z" fill="#4A9F46"/>
<path d="M9.50488 28.8409H12.6076V31.9437H9.50488V28.8409Z" fill="#4A9F46"/>
<path d="M21.915 31.9436H25.0178V35.0453H21.915V31.9436Z" fill="#306C15"/>
<path d="M21.915 13.3289H25.0178V16.4306H21.915V13.3289Z" fill="#306C15"/>
<path d="M28.1201 31.9436H43.6327V35.0453H28.1201V31.9436Z" fill="#306C15"/>
<path d="M28.1201 13.3289H43.6327V16.4306H28.1201V13.3289Z" fill="#306C15"/>
<path d="M34.3242 38.1479H43.6324V41.2507H34.3242V38.1479Z" fill="#306C15"/>
<path d="M34.3242 19.5332H43.6324V22.6359H34.3242V19.5332Z" fill="#306C15"/>
<path d="M21.915 38.1479H31.2232V41.2507H21.915V38.1479Z" fill="#306C15"/>
<path d="M21.915 19.5332H31.2232V22.6359H21.915V19.5332Z" fill="#306C15"/>
<path d="M9.50488 44.3535H49.8372V47.4552H9.50488V44.3535Z" fill="#306C15"/>
<path d="M9.50488 4.02124H49.8372V7.12396H9.50488V4.02124Z" fill="#B3DDB1"/>
</g>
<defs>
<clipPath id="clip0_1002_9067">
<rect width="52.7422" height="52.7422" fill="white" transform="translate(0.199219 0.918579)"/>
</clipPath>
</defs>
</svg>
