<svg width="49" height="57" viewBox="0 0 49 57" fill="none" xmlns="http://www.w3.org/2000/svg">
<g clip-path="url(#clip0_1002_8814)">
<path d="M49.7789 34.8371V57.1717H-45.1436V34.8371H-39.5594V18.0867H-33.9753V12.5026H-28.3931V6.91846H-11.6408V12.5026H-6.05851V18.0867H-0.474403V34.8371H5.1097V29.253H16.2761V12.5026H21.8602V6.91846H33.0284V29.253H44.1947V34.8371H49.7789Z" fill="black"/>
<path d="M21.8594 12.5029H27.4435V18.087H21.8594V12.5029Z" fill="#495959"/>
<path d="M44.1946 51.5878V57.1719H38.6105L35.8193 54.2368V48.7958H41.5666L44.1946 51.5878Z" fill="#FFE8CB"/>
<path d="M21.8594 23.6691H27.4435V29.2532H21.8594V23.6691Z" fill="#FFE8CB"/>
<path d="M13.4827 48.797V54.3487L10.6915 57.1722H5.10742V51.5881L7.80604 48.797H13.4827Z" fill="#FFE8CB"/>
<path d="M44.1954 34.8375V46.0039L41.5674 48.7959H35.8202V54.2369L33.029 57.1721H16.2767L13.4856 54.3485V48.7969L7.80897 48.7963L5.11035 46.0039V34.8375H16.2767V29.2534H21.8608V34.8375H27.4449V29.2534H33.029V34.8375H44.1954Z" fill="#E9F3FB"/>
<path d="M10.6925 40.4214H16.2748V57.1719H10.6925V51.5877H5.1084V46.0036H10.6925V40.4214Z" fill="#86BFEC"/>
<path d="M44.1927 46.0036V51.5877H38.6086V57.1719H33.0264V40.4214H38.6086V46.0036H44.1927Z" fill="#86BFEC"/>
</g>
<defs>
<clipPath id="clip0_1002_8814">
<rect width="48.2465" height="56.2876" fill="white" transform="translate(0.219727 -0.000610352)"/>
</clipPath>
</defs>
</svg>
