<svg width="78" height="78" viewBox="0 0 78 78" fill="none" xmlns="http://www.w3.org/2000/svg">
<path d="M78 18.3524V50.4695H73.4114V64.2353H68.8228V68.8224H64.2357V64.2353H59.6471V59.6467H9.17719V55.0581H4.58859V50.4695H0V18.3524H4.58859V13.7638H9.17719V9.17676H68.8228V13.7638H73.4114V18.3524H78Z" fill="black"/>
<path d="M71.117 20.9007L68.8227 22.9415L71.117 24.7839V47.8028L68.8227 50.47L64.2357 55.0586L61.9234 57.6073L59.6471 55.0586L57.3528 52.7643H11.5876L9.17711 50.47L6.88281 48.1699V25.2867L9.17711 22.9415L6.88281 20.6472L9.17711 18.3529L11.5122 16.0586H66.7667L68.8227 18.3529L71.117 20.9007Z" fill="#FFDD90"/>
<path d="M64.2356 27.53V36.7057H59.647V41.2943H55.0584V45.8829H50.4699V41.2943H45.8828V36.7057H41.2942V27.53H45.8828V22.9414H59.647V27.53H64.2356Z" fill="#952A3A"/>
<path d="M32.117 27.53H36.7056V36.7057H32.117V41.2943H27.5299V45.8829H22.9413V41.2943H18.3528V36.7057H13.7642V27.53H18.3528V22.9414H32.117V27.53Z" fill="#952A3A"/>
<path d="M29.8235 29.8232L32.117 32.1168V36.7054H27.53V41.294H22.9414V36.7054H18.3528V32.1168L20.6471 29.8232L22.9414 32.1168H27.53L29.8235 29.8232Z" fill="#FF6379"/>
<path d="M59.6471 32.1168V36.7054H55.0585V41.294H50.4699V36.7054H45.8828V32.1168L48.1763 29.8232L50.4699 32.1168H55.0585L57.3528 29.8232L59.6471 32.1168Z" fill="#FF6379"/>
<path d="M55.0588 27.5293H59.6474V32.1164H55.0588V27.5293Z" fill="#FFA6B2"/>
<path d="M45.8831 27.5293H50.4701V32.1164H45.8831V27.5293Z" fill="#FFA6B2"/>
<path d="M27.5303 27.5293H32.1173V32.1164H27.5303V27.5293Z" fill="#FFA6B2"/>
<path d="M18.353 27.5293H22.9416V32.1164H18.353V27.5293Z" fill="#FFA6B2"/>
<path d="M9.17722 50.4693H4.58862V22.9408L6.88292 20.6465L9.17722 22.9408V50.4693Z" fill="#DAAC5C"/>
<path d="M71.1171 20.9004L73.4113 22.9412V50.4697H68.8228V22.9412L71.1171 20.9004Z" fill="#DAAC5C"/>
<path d="M64.2358 50.4697H68.8229V64.2355H64.2358V59.6469H59.6472V55.0583H64.2358V50.4697Z" fill="#DAAC5C"/>
<path d="M9.17725 50.4697H59.6472V55.0583H9.17725V50.4697Z" fill="#DAAC5C"/>
<path d="M4.58862 18.3525H9.17722V22.9411H4.58862V18.3525Z" fill="#FFEEDC"/>
<path d="M68.823 18.3525H73.4116V22.9411H68.823V18.3525Z" fill="#FFEEDC"/>
<path d="M9.17725 13.7637H68.8229V18.3523H9.17725V13.7637Z" fill="#FFEEDC"/>
</svg>
