<svg width="69" height="31" viewBox="0 0 69 31" fill="none" xmlns="http://www.w3.org/2000/svg">
<path d="M3.20471 14.0349H19.4327V16.3531H3.20471V14.0349Z" fill="#B9745B"/>
<path d="M3.20471 20.9897H19.4327V23.308H3.20471V20.9897Z" fill="#B9745B"/>
<path d="M0.886597 16.3531H3.20489V20.9897H0.886597V16.3531Z" fill="#B9745B"/>
<path d="M19.4329 16.3531H21.7512V20.9897H19.4329V16.3531Z" fill="#B9745B"/>
<path d="M3.20471 7.07998H19.4327V9.39827H3.20471V7.07998Z" fill="#B9745B"/>
<path d="M0.886597 9.39827H3.20489V14.0349H0.886597V9.39827Z" fill="#B9745B"/>
<path d="M19.4329 9.39827H21.7512V14.0349H19.4329V9.39827Z" fill="#B9745B"/>
<path d="M3.20471 27.9446H19.4327V30.2629H3.20471V27.9446Z" fill="#9B5044"/>
<path d="M0.886597 23.308H3.20489V27.9446H0.886597V23.308Z" fill="#B9745B"/>
<path d="M19.4329 23.308H21.7512V27.9446H19.4329V23.308Z" fill="#9B5044"/>
<path d="M26.3877 14.0349H42.6157V16.3531H26.3877V14.0349Z" fill="#B9745B"/>
<path d="M26.3877 20.9897H42.6157V23.308H26.3877V20.9897Z" fill="#B9745B"/>
<path d="M24.0693 16.3531H26.3876V20.9897H24.0693V16.3531Z" fill="#B9745B"/>
<path d="M42.616 16.3531H44.9343V20.9897H42.616V16.3531Z" fill="#B9745B"/>
<path d="M26.3877 7.07998H42.6157V9.39827H26.3877V7.07998Z" fill="#B9745B"/>
<path d="M24.0693 9.39827H26.3876V14.0349H24.0693V9.39827Z" fill="#B9745B"/>
<path d="M42.616 9.39827H44.9343V14.0349H42.616V9.39827Z" fill="#B9745B"/>
<path d="M26.3877 0.125107H42.6157V2.4434H26.3877V0.125107Z" fill="#B9745B"/>
<path d="M24.0693 2.4434H26.3876V7.07998H24.0693V2.4434Z" fill="#B9745B"/>
<path d="M42.616 2.4434H44.9343V7.07998H42.616V2.4434Z" fill="#B9745B"/>
<path d="M26.3877 27.9446H42.6157V30.2629H26.3877V27.9446Z" fill="#9B5044"/>
<path d="M24.0693 23.308H26.3876V27.9446H24.0693V23.308Z" fill="#B9745B"/>
<path d="M42.616 23.308H44.9343V27.9446H42.616V23.308Z" fill="#9B5044"/>
<path d="M49.5708 14.0349H65.7988V16.3531H49.5708V14.0349Z" fill="#B9745B"/>
<path d="M49.5708 20.9897H65.7988V23.308H49.5708V20.9897Z" fill="#B9745B"/>
<path d="M47.2524 16.3531H49.5707V20.9897H47.2524V16.3531Z" fill="#B9745B"/>
<path d="M65.7988 16.3531H68.1171V20.9897H65.7988V16.3531Z" fill="#B9745B"/>
<path d="M49.5708 27.9446H65.7988V30.2629H49.5708V27.9446Z" fill="#9B5044"/>
<path d="M47.2524 23.308H49.5707V27.9446H47.2524V23.308Z" fill="#B9745B"/>
<path d="M65.7988 23.308H68.1171V27.9446H65.7988V23.308Z" fill="#9B5044"/>
<path d="M3.20471 9.39827H19.4327V14.0349H3.20471V9.39827Z" fill="#E5CB8E"/>
<path d="M3.20471 16.3531H19.4327V20.9897H3.20471V16.3531Z" fill="#E5CB8E"/>
<path d="M3.20471 23.308H19.4327V27.9446H3.20471V23.308Z" fill="#E5CB8E"/>
<path d="M26.3877 9.39827H42.6157V14.0349H26.3877V9.39827Z" fill="#E5CB8E"/>
<path d="M26.3877 2.4434H42.6157V7.07998H26.3877V2.4434Z" fill="#E5CB8E"/>
<path d="M26.3877 16.3531H42.6157V20.9897H26.3877V16.3531Z" fill="#E5CB8E"/>
<path d="M26.3877 23.308H42.6157V27.9446H26.3877V23.308Z" fill="#E5CB8E"/>
<path d="M49.5708 16.3531H65.7988V20.9897H49.5708V16.3531Z" fill="#E5CB8E"/>
<path d="M49.5708 23.308H65.7988V27.9446H49.5708V23.308Z" fill="#E5CB8E"/>
<path d="M3.20471 16.3531H5.523V20.9897H3.20471V16.3531Z" fill="#FAF9C6"/>
<path d="M3.20471 23.308H5.523V27.9446H3.20471V23.308Z" fill="#FAF9C6"/>
<path d="M7.84131 16.3531H12.4779V20.9897H7.84131V16.3531Z" fill="#FAF9C6"/>
<path d="M33.3425 2.4434H35.6608V7.07998H33.3425V2.4434Z" fill="#FAF9C6"/>
<path d="M7.84131 23.308H12.4779V27.9446H7.84131V23.308Z" fill="#FAF9C6"/>
<path d="M17.1146 16.3531H19.4329V20.9897H17.1146V16.3531Z" fill="#D5A57D"/>
<path d="M3.20471 9.39827H5.523V14.0349H3.20471V9.39827Z" fill="#FAF9C6"/>
<path d="M26.3877 2.4434H31.0243V7.07998H26.3877V2.4434Z" fill="#FAF9C6"/>
<path d="M7.84131 9.39827H12.4779V14.0349H7.84131V9.39827Z" fill="#FAF9C6"/>
<path d="M17.1146 9.39827H19.4329V14.0349H17.1146V9.39827Z" fill="#D5A57D"/>
<path d="M17.1146 23.308H19.4329V27.9446H17.1146V23.308Z" fill="#D5A57D"/>
<path d="M63.4805 16.3531H65.7988V20.9897H63.4805V16.3531Z" fill="#D5A57D"/>
<path d="M63.4805 23.308H65.7988V27.9446H63.4805V23.308Z" fill="#D5A57D"/>
<path d="M37.9792 2.4434H42.6158V7.07998H37.9792V2.4434Z" fill="#D5A57D"/>
<path d="M33.3425 9.39827H35.6608V14.0349H33.3425V9.39827Z" fill="#FAF9C6"/>
<path d="M26.3877 9.39827H31.0243V14.0349H26.3877V9.39827Z" fill="#FAF9C6"/>
<path d="M37.9792 9.39827H42.6158V14.0349H37.9792V9.39827Z" fill="#D5A57D"/>
<path d="M33.3425 16.3531H35.6608V20.9897H33.3425V16.3531Z" fill="#FAF9C6"/>
<path d="M26.3877 16.3531H31.0243V20.9897H26.3877V16.3531Z" fill="#FAF9C6"/>
<path d="M37.9792 16.3531H42.6158V20.9897H37.9792V16.3531Z" fill="#D5A57D"/>
<path d="M33.3425 23.308H35.6608V27.9446H33.3425V23.308Z" fill="#FAF9C6"/>
<path d="M26.3877 23.308H31.0243V27.9446H26.3877V23.308Z" fill="#FAF9C6"/>
<path d="M37.9792 23.308H42.6158V27.9446H37.9792V23.308Z" fill="#D5A57D"/>
<path d="M58.844 16.3531H61.1623V20.9897H58.844V16.3531Z" fill="#FAF9C6"/>
<path d="M58.844 23.308H61.1623V27.9446H58.844V23.308Z" fill="#FAF9C6"/>
<path d="M51.8889 16.3531H56.5255V20.9897H51.8889V16.3531Z" fill="#FAF9C6"/>
<path d="M51.8889 23.308H56.5255V27.9446H51.8889V23.308Z" fill="#FAF9C6"/>
</svg>
