<svg width="78" height="70" viewBox="0 0 78 70" fill="none" xmlns="http://www.w3.org/2000/svg">
<path d="M68.8228 55.6479H73.4114V60.2365H68.8228V64.8236H64.2358V69.4121H59.6472V64.8236H55.0586V60.2365H50.47V55.6479H55.0586V51.0593H59.6472V46.4707H64.2358V51.0593H68.8228V55.6479Z" fill="black"/>
<path d="M78 9.7648V23.5306H73.4115V28.1177H68.8229V32.7062H64.2358V37.2948H59.6472V32.7062H55.0586V28.1177H50.47V23.5306H45.8829V9.7648H50.47V5.17773H59.6472V9.7648H64.2358V5.17773H73.4115V9.7648H78Z" fill="black"/>
<path d="M22.9415 14.3531H18.3529V5.17746H22.9415V0.588867H36.7058V5.17746H41.2943V14.3531H36.7058V18.9417H32.1172V23.5303H27.5301V18.9417H22.9415V14.3531Z" fill="black"/>
<path d="M50.47 46.47H45.8829V51.0586H41.2943V55.6472H36.7057V60.2358H32.1171V64.8229H27.53V69.4115H22.9414V64.8229H18.3529V60.2358H13.7643V55.6472H9.17719V51.0586H4.58859V46.47H0V37.2944H4.58859V32.7058H9.17719V28.1172H18.3529V32.7058H22.9414V37.2944H27.53V32.7058H32.1171V28.1172H41.2943V32.7058H45.8829V37.2944H50.47V46.47Z" fill="black"/>
<path d="M4.58859 18.9418H0V14.3532H4.58859V9.76465H9.17719V14.3532H13.7643V18.9418H9.17719V23.5304H4.58859V18.9418Z" fill="black"/>
<path d="M36.7058 9.76424V14.3528H32.1172V18.9414H27.5301V14.3528H22.9415V9.76424L25.2358 7.4707L27.5301 9.76424H32.1172L34.4115 7.4707L36.7058 9.76424Z" fill="#FF6379"/>
<path d="M73.4115 14.3529V23.5301H68.8229V28.1171H64.2359V32.7057H59.6473V28.1171H55.0587V23.5301H50.4701V14.3529L53.1967 12.0586H57.1749L59.6473 14.3529L61.9408 16.4811L64.2359 14.3529L66.394 12.0586H71.2036L73.4115 14.3529Z" fill="#FF6379"/>
<path d="M41.2944 37.2943L43.5887 39.5886V44.4459L41.2944 46.47V51.0586H36.7058V55.6471H32.1172V60.2357H27.5301V64.8228H22.9415V60.2357H18.3529V55.6471H13.7643V51.0586H9.17726V46.47L6.8822 44.1764V39.5886L9.17726 37.2943L11.5054 35H16.5548L18.3529 37.2943L22.9415 41.8829L25.2351 44.1764L27.5301 41.8829L32.1172 37.2943L34.4115 35H39.0001L41.2944 37.2943Z" fill="#FF6379"/>
<path d="M68.8229 55.6472V60.2358H64.2358V64.8229H59.6472V60.2358H55.0586V55.6472H59.6472V51.0586H64.2358V55.6472H68.8229Z" fill="#FF9000"/>
<path d="M4.58862 14.3525H9.17722V18.9411H4.58862V14.3525Z" fill="#FFD944"/>
<path d="M59.6472 55.6475H64.2358V60.2361H59.6472V55.6475Z" fill="#FFD944"/>
<path d="M32.1172 32.7061H41.2944V37.2946H32.1172V32.7061Z" fill="#FFA6B2"/>
<path d="M9.17725 32.7061H18.3529V37.2946H9.17725V32.7061Z" fill="#FFA6B2"/>
<path d="M18.3529 37.2949H22.9415V41.8835H18.3529V37.2949Z" fill="#FFA6B2"/>
<path d="M41.2943 37.2949H45.8829V46.4706H41.2943V37.2949Z" fill="#FFA6B2"/>
<path d="M22.9415 41.8838H27.5301V46.4709H22.9415V41.8838Z" fill="#FFA6B2"/>
<path d="M4.58862 37.2949H9.17722V46.4706H4.58862V37.2949Z" fill="#FFA6B2"/>
<path d="M64.2357 9.76465H73.4114V14.3532H64.2357V9.76465Z" fill="#FFA6B2"/>
<path d="M22.9415 5.17773H27.5301V9.7648H22.9415V5.17773Z" fill="#FFA6B2"/>
<path d="M59.6472 14.3535H64.2358V18.9421H59.6472V14.3535Z" fill="#FFA6B2"/>
<path d="M27.53 37.2949H32.1171V41.8835H27.53V37.2949Z" fill="#FFA6B2"/>
<path d="M50.47 9.76465H59.6472V14.3532H50.47V9.76465Z" fill="#FFA6B2"/>
<path d="M32.1172 5.17773H36.7058V9.7648H32.1172V5.17773Z" fill="#FFA6B2"/>
</svg>
