<svg width="78" height="78" viewBox="0 0 78 78" fill="none" xmlns="http://www.w3.org/2000/svg">
<path d="M78 27.5296V59.6467H73.4114V64.2353H68.8228V68.8224H9.17719V64.2353H4.58859V59.6467H0V27.5296H4.58859V22.941H9.17719V18.3524H22.9414V13.7638H27.53V9.17676H36.7057V13.7638H41.2943V9.17676H50.47V13.7638H55.0586V18.3524H68.8228V22.941H73.4114V27.5296H78Z" fill="black"/>
<path d="M50.47 18.3529V22.9415H45.8829V27.5301H41.2943V32.1171H36.7057V27.5301H32.1171V22.9415H27.53V18.1379L32.1179 16.0586L36.7057 18.3529L39 20.6472L41.2943 18.3529L45.8821 16.0586L50.47 18.3529Z" fill="#FF6379"/>
<path d="M68.8229 22.9414V27.53H64.2358V32.1171H59.6472V36.7057H55.0586V41.2943H50.47V45.8829H27.5301V41.2943H22.9415V36.7057H18.3529V32.1171H13.7643V27.53H9.17725V22.9414H27.5301V27.53H32.1172V32.1171H36.7058V36.7057H41.2944V32.1171H45.8829V27.53H50.47V22.9414H68.8229Z" fill="#FFE8CB"/>
<path d="M18.3529 45.883V50.47H13.7643V55.0586H9.17724L6.79077 52.7643V34.4122L9.17724 32.1172L13.7643 36.7058L18.3529 41.2944L20.6472 43.5887L18.3529 45.883Z" fill="#FFE8CB"/>
<path d="M70.9257 33.571V52.7643L68.8229 55.0586H64.2358V50.47H59.6472V45.883L57.3529 43.5887L59.6472 41.2944L64.2358 36.7058L68.8229 32.1172L70.9257 33.571Z" fill="#FFE8CB"/>
<path d="M60.8944 61.8993H16.0586L13.7643 59.6475L18.3529 55.0589L22.9415 50.4703L25.2358 48.1768L27.5301 50.4703L30.036 52.7646H48.4546L50.47 50.4703L52.7643 48.1768L55.0586 50.4703L59.6472 55.0589L64.2358 59.6475L60.8944 61.8993Z" fill="#FFE8CB"/>
<path d="M41.2943 13.7637H50.47V18.3523H41.2943V13.7637Z" fill="#FFA6B2"/>
<path d="M27.53 13.7637H36.7057V18.3523H27.53V13.7637Z" fill="#FFA6B2"/>
<path d="M36.7057 18.3525H41.2943V22.9411H36.7057V18.3525Z" fill="#FFA6B2"/>
<path d="M18.3529 41.2939H22.9415V45.8825H18.3529V41.2939Z" fill="#ECC372"/>
<path d="M13.7643 36.7051H18.3529V41.2937H13.7643V36.7051Z" fill="#ECC372"/>
<path d="M13.7643 32.1164V36.705H9.17722V59.6464H4.58862V27.5293H9.17722V32.1164H13.7643Z" fill="#ECC372"/>
<path d="M73.4114 27.5293V59.6464H68.8228V36.705H64.2357V32.1164H68.8228V27.5293H73.4114Z" fill="#ECC372"/>
<path d="M59.6472 36.7051H64.2358V41.2937H59.6472V36.7051Z" fill="#ECC372"/>
<path d="M55.0586 41.2939H59.6472V45.8825H55.0586V41.2939Z" fill="#ECC372"/>
<path d="M27.53 50.4688H50.47V55.0573H27.53V50.4688Z" fill="#ECC372"/>
<path d="M22.9415 45.8818H27.5301V50.4689H22.9415V45.8818Z" fill="#ECC372"/>
<path d="M18.3529 50.4688H22.9415V55.0573H18.3529V50.4688Z" fill="#ECC372"/>
<path d="M50.47 45.8818H55.0586V50.4689H50.47V45.8818Z" fill="#ECC372"/>
<path d="M55.0586 50.4688H59.6472V55.0573H55.0586V50.4688Z" fill="#ECC372"/>
<path d="M68.8229 59.6462V64.2348H9.17725V59.6462H13.7643V55.0576H18.3529V59.6462H59.6472V55.0576H64.2358V59.6462H68.8229Z" fill="#ECC372"/>
</svg>
