<svg width="39" height="39" viewBox="0 0 39 39" fill="none" xmlns="http://www.w3.org/2000/svg">
<g id="iconoir:coins">
<g id="Group">
<path id="Vector" d="M17.9182 23.4567C17.9182 25.6406 21.4615 27.4131 25.8309 27.4131C30.2003 27.4131 33.7437 25.6406 33.7437 23.4567M5.25781 15.544C5.25781 17.7279 8.80114 19.5004 13.1705 19.5004C14.9525 19.5004 16.5968 19.206 17.9182 18.7091M5.25781 21.0829C5.25781 23.2668 8.80114 25.0393 13.1705 25.0393C14.9525 25.0393 16.5952 24.7449 17.9182 24.248M25.8309 21.0829C21.4615 21.0829 17.9182 19.3104 17.9182 17.1265C17.9182 14.9426 21.4615 13.1702 25.8309 13.1702C30.2003 13.1702 33.7437 14.9426 33.7437 17.1265C33.7437 19.3104 30.2003 21.0829 25.8309 21.0829Z" stroke="#C73E00" stroke-width="2.37382" stroke-linecap="round" stroke-linejoin="round"/>
<path id="Vector_2" d="M5.25781 9.21368V26.6217C5.25781 28.8056 8.80114 30.5781 13.1705 30.5781C14.9525 30.5781 16.5952 30.2837 17.9182 29.7868M17.9182 29.7868V17.1264M17.9182 29.7868C17.9182 31.9707 21.4615 33.7432 25.8309 33.7432C30.2003 33.7432 33.7437 31.9707 33.7437 29.7868V17.1264M21.0833 13.9613V9.21368" stroke="#C73E00" stroke-width="2.37382" stroke-linecap="round" stroke-linejoin="round"/>
<path id="Vector_3" d="M13.1705 13.1698C8.80114 13.1698 5.25781 11.3974 5.25781 9.21345C5.25781 7.02953 8.80114 5.25708 13.1705 5.25708C17.54 5.25708 21.0833 7.02953 21.0833 9.21345C21.0833 11.3974 17.54 13.1698 13.1705 13.1698Z" stroke="#C73E00" stroke-width="2.37382" stroke-linecap="round" stroke-linejoin="round"/>
</g>
</g>
</svg>
