<svg width="32" height="35" viewBox="0 0 32 35" fill="none" xmlns="http://www.w3.org/2000/svg">
<g id="ph:gift">
<path id="Vector" d="M29.1295 10.7412H23.8958C23.954 10.6919 24.0137 10.6442 24.0704 10.592C24.5235 10.1894 24.8887 9.6977 25.1431 9.14757C25.3975 8.59744 25.5356 8.00073 25.5489 7.39477C25.5685 6.73187 25.4524 6.07195 25.2077 5.45554C24.9631 4.83913 24.595 4.27922 24.1261 3.81021C23.6572 3.34119 23.0974 2.97295 22.4811 2.7281C21.8648 2.48325 21.2049 2.36696 20.542 2.38636C19.9357 2.39942 19.3387 2.53747 18.7883 2.79188C18.2379 3.04628 17.746 3.41157 17.3432 3.86486C16.786 4.51071 16.3329 5.23959 16.0005 6.02518C15.6681 5.23959 15.215 4.51071 14.6578 3.86486C14.255 3.41157 13.7631 3.04628 13.2127 2.79188C12.6623 2.53747 12.0653 2.39942 11.4591 2.38636C10.7961 2.36696 10.1363 2.48325 9.51992 2.7281C8.90357 2.97295 8.34378 3.34119 7.8749 3.81021C7.40602 4.27922 7.03795 4.83913 6.79328 5.45554C6.54862 6.07195 6.43252 6.73187 6.45212 7.39477C6.46538 8.00073 6.60353 8.59744 6.85793 9.14757C7.11233 9.6977 7.47751 10.1894 7.93063 10.592C7.98732 10.6412 8.047 10.689 8.10518 10.7412H2.87147C2.23837 10.7412 1.63121 10.9927 1.18354 11.4403C0.735872 11.888 0.484375 12.4952 0.484375 13.1283V17.9024C0.484375 18.5355 0.735872 19.1427 1.18354 19.5904C1.63121 20.038 2.23837 20.2895 2.87147 20.2895V29.8379C2.87147 30.471 3.12297 31.0781 3.57064 31.5258C4.0183 31.9735 4.62547 32.225 5.25857 32.225H26.7424C27.3755 32.225 27.9827 31.9735 28.4304 31.5258C28.878 31.0781 29.1295 30.471 29.1295 29.8379V20.2895C29.7626 20.2895 30.3698 20.038 30.8175 19.5904C31.2651 19.1427 31.5166 18.5355 31.5166 17.9024V13.1283C31.5166 12.4952 31.2651 11.888 30.8175 11.4403C30.3698 10.9927 29.7626 10.7412 29.1295 10.7412ZM19.1336 5.44631C19.3225 5.23762 19.5526 5.07025 19.8094 4.95472C20.0661 4.83918 20.344 4.77798 20.6255 4.77494H20.6986C21.0286 4.777 21.3548 4.84491 21.6582 4.97467C21.9616 5.10443 22.236 5.29344 22.4654 5.53063C22.6948 5.76781 22.8746 6.0484 22.9942 6.35595C23.1138 6.66349 23.1707 6.99181 23.1618 7.32167C23.1588 7.60319 23.0976 7.88105 22.982 8.13779C22.8665 8.39453 22.6991 8.62462 22.4904 8.8136C21.0746 10.0668 18.7248 10.5084 17.2687 10.6636C17.4477 9.08363 17.94 6.78755 19.1336 5.44631ZM9.57176 5.50002C10.0342 5.03765 10.6604 4.77654 11.3143 4.77345H11.3874C11.669 4.77648 11.9468 4.83769 12.2036 4.95323C12.4603 5.06876 12.6904 5.23613 12.8794 5.44482C14.1311 6.85917 14.5727 9.20448 14.7279 10.6546C13.2777 10.5054 10.9324 10.0579 9.51805 8.80614C9.30935 8.61716 9.14199 8.38707 9.02645 8.13033C8.91092 7.87359 8.84971 7.59573 8.84667 7.31421C8.83742 6.97887 8.89639 6.64515 9.02001 6.3333C9.14362 6.02144 9.3293 5.73795 9.56579 5.50002H9.57176ZM2.87147 13.1283H14.807V17.9024H2.87147V13.1283ZM5.25857 20.2895H14.807V29.8379H5.25857V20.2895ZM26.7424 29.8379H17.1941V20.2895H26.7424V29.8379ZM29.1295 17.9024H17.1941V13.1283H29.1295V17.9024Z" fill="#C73E00" stroke="#FAECE6" stroke-width="0.0969696"/>
</g>
</svg>
