<svg width="28" height="28" viewBox="0 0 28 28" fill="none" xmlns="http://www.w3.org/2000/svg">
<path fill-rule="evenodd" clip-rule="evenodd" d="M11.7307 4.93933H16.2723C20.5542 4.93933 22.6951 4.93933 24.0253 6.26623C24.9412 7.17983 25.2265 8.47681 25.3153 10.5903C25.3329 11.0094 25.3417 11.219 25.2635 11.3588C25.1852 11.4986 24.8728 11.6731 24.2479 12.0221C23.5538 12.4096 23.0847 13.1501 23.0847 13.9999C23.0847 14.8497 23.5538 15.5902 24.2479 15.9778C24.8728 16.3268 25.1852 16.5013 25.2635 16.6411C25.3417 16.7809 25.3329 16.9905 25.3153 17.4096C25.2265 19.5231 24.9412 20.82 24.0253 21.7336C22.6951 23.0605 20.5542 23.0605 16.2723 23.0605H11.7307C7.44889 23.0605 5.30797 23.0605 3.97777 21.7336C3.06189 20.82 2.77662 19.5231 2.68776 17.4096C2.67014 16.9905 2.66133 16.7809 2.7396 16.6411C2.81786 16.5013 3.13032 16.3268 3.75522 15.9778C4.44923 15.5902 4.91836 14.8497 4.91836 13.9999C4.91836 13.1501 4.44923 12.4096 3.75522 12.0221C3.13031 11.6731 2.81786 11.4986 2.7396 11.3588C2.66133 11.219 2.67014 11.0094 2.68776 10.5903C2.77662 8.47681 3.06189 7.17983 3.97777 6.26623C5.30797 4.93933 7.44889 4.93933 11.7307 4.93933ZM18.0197 10.0016C18.3523 10.3333 18.3523 10.8711 18.0197 11.2028L11.2073 17.9983C10.8748 18.33 10.3356 18.33 10.0031 17.9983C9.67053 17.6666 9.67053 17.1287 10.0031 16.797L16.8155 10.0016C17.148 9.66985 17.6872 9.66985 18.0197 10.0016ZM16.8499 17.964C17.477 17.964 17.9853 17.4569 17.9853 16.8314C17.9853 16.2059 17.477 15.6988 16.8499 15.6988C16.2228 15.6988 15.7145 16.2059 15.7145 16.8314C15.7145 17.4569 16.2228 17.964 16.8499 17.964ZM11.1729 12.3011C11.8 12.3011 12.3083 11.794 12.3083 11.1685C12.3083 10.543 11.8 10.0359 11.1729 10.0359C10.5458 10.0359 10.0375 10.543 10.0375 11.1685C10.0375 11.794 10.5458 12.3011 11.1729 12.3011Z" fill="#C73E00"/>
</svg>
