<svg width="37" height="38" viewBox="0 0 37 38" fill="none" xmlns="http://www.w3.org/2000/svg">
<g id="Frame 715">
<g id="Group">
<path id="Vector" d="M23.8243 17.2377V17.2549M6.89305 12.7201C6.13737 12.1394 5.55699 11.3609 5.21605 10.4709C4.87511 9.58089 4.78689 8.61393 4.96115 7.67691C5.1354 6.73989 5.56534 5.86929 6.20345 5.16134C6.84155 4.45339 7.66298 3.93565 8.57693 3.66535C9.49089 3.39505 10.4618 3.38271 11.3823 3.6297C12.3028 3.87669 13.1371 4.37339 13.793 5.0649C14.4489 5.75641 14.9008 6.6158 15.0989 7.54809C15.2969 8.48039 15.2332 9.44927 14.915 10.3477" stroke="#C73E00" strokeWidth="2.64183" strokeLinecap="round" strokeLinejoin="round"/>
<path id="Vector_2" d="M25.547 5.17773V11.7301C27.6794 12.9639 29.3028 14.9165 30.1266 17.2383H32.4371C32.894 17.2383 33.3322 17.4198 33.6554 17.7429C33.9785 18.066 34.16 18.5043 34.16 18.9612V22.4071C34.16 22.864 33.9785 23.3023 33.6554 23.6254C33.3322 23.9485 32.894 24.13 32.4371 24.13H30.1249C29.546 25.7668 28.5622 27.2313 27.2683 28.3908V31.8832C27.2683 32.5686 26.996 33.226 26.5113 33.7107C26.0266 34.1953 25.3693 34.4676 24.6839 34.4676C23.9984 34.4676 23.3411 34.1953 22.8564 33.7107C22.3717 33.226 22.0995 32.5686 22.0995 31.8832V30.8787C21.5301 30.9741 20.9538 31.0219 20.3765 31.0217H13.4848C12.9075 31.0219 12.3312 30.9741 11.7618 30.8787V31.8832C11.7618 32.5686 11.4896 33.226 11.0049 33.7107C10.5202 34.1953 9.86287 34.4676 9.17745 34.4676C8.49202 34.4676 7.83467 34.1953 7.35 33.7107C6.86533 33.226 6.59304 32.5686 6.59304 31.8832V28.3908C5.032 26.9952 3.93159 25.1584 3.43746 23.1236C2.94333 21.0888 3.07879 18.9519 3.82591 16.9957C4.57303 15.0396 5.89657 13.3565 7.62135 12.1691C9.34613 10.9818 11.3908 10.3462 13.4848 10.3465H17.7921L25.5453 5.17773H25.547Z" stroke="#C73E00" strokeWidth="2.64183" strokeLinecap="round" strokeLinejoin="round"/>
</g>
</g>
</svg>
