<svg width="28" height="28" viewBox="0 0 28 28" fill="none" xmlns="http://www.w3.org/2000/svg">
<g id="Bold / Essentional, UI / Gift">
<g id="Vector">
<path d="M13.1254 2.33337C8.20401 2.33817 5.65768 2.42622 4.04225 4.04164C2.42683 5.65707 2.33878 8.2034 2.33398 13.1248H8.06642C7.65696 12.6133 7.35101 12.01 7.18418 11.3427C6.55622 8.83085 8.83146 6.55561 11.3433 7.18357C12.0106 7.3504 12.6139 7.65634 13.1254 8.06581V2.33337Z" fill="#C73E00"/>
<path d="M2.33398 14.8748C2.33878 19.7961 2.42683 22.3425 4.04225 23.9579C5.65768 25.5733 8.20401 25.6614 13.1254 25.6662V16.4774C12.2158 18.2941 10.3371 19.5414 8.16704 19.5414C7.68379 19.5414 7.29204 19.1497 7.29204 18.6664C7.29204 18.1832 7.68379 17.7914 8.16704 17.7914C9.95996 17.7914 11.4622 16.547 11.8572 14.8748H2.33398Z" fill="#C73E00"/>
<path d="M14.8754 25.6662C19.7967 25.6614 22.3431 25.5733 23.9585 23.9579C25.5739 22.3425 25.662 19.7961 25.6668 14.8748H16.1435C16.5385 16.547 18.0408 17.7914 19.8337 17.7914C20.317 17.7914 20.7087 18.1832 20.7087 18.6664C20.7087 19.1497 20.317 19.5414 19.8337 19.5414C17.6637 19.5414 15.785 18.2941 14.8754 16.4774V25.6662Z" fill="#C73E00"/>
<path d="M25.6668 13.1248C25.662 8.2034 25.5739 5.65707 23.9585 4.04164C22.3431 2.42622 19.7967 2.33817 14.8754 2.33337V8.06581C15.3868 7.65634 15.9901 7.3504 16.6574 7.18357C19.1693 6.55561 21.4445 8.83085 20.8166 11.3427C20.6497 12.01 20.3438 12.6133 19.9343 13.1248H25.6668Z" fill="#C73E00"/>
<path d="M10.9189 8.88132C12.2156 9.20551 13.1254 10.3707 13.1254 11.7074V13.1248H11.708C10.3713 13.1248 9.20612 12.215 8.88193 10.9183C8.57438 9.68808 9.68869 8.57377 10.9189 8.88132Z" fill="#C73E00"/>
<path d="M14.8754 11.7074V13.1248H16.2928C17.6295 13.1248 18.7946 12.215 19.1188 10.9183C19.4264 9.68808 18.3121 8.57377 17.0819 8.88132C15.7851 9.20551 14.8754 10.3707 14.8754 11.7074Z" fill="#C73E00"/>
</g>
</g>
</svg>
