<svg width="32" height="32" viewBox="0 0 32 32" fill="none" xmlns="http://www.w3.org/2000/svg">
<g id="Group">
<path id="Vector" d="M14.4086 19.9473C14.4086 22.1312 17.9519 23.9036 22.3213 23.9036C26.6907 23.9036 30.234 22.1312 30.234 19.9473M1.7482 12.0345C1.7482 14.2184 5.29152 15.9909 9.66094 15.9909C11.4429 15.9909 13.0872 15.6965 14.4086 15.1996M1.7482 17.5734C1.7482 19.7574 5.29152 21.5298 9.66094 21.5298C11.4429 21.5298 13.0856 21.2355 14.4086 20.7385M22.3213 17.5734C17.9519 17.5734 14.4086 15.801 14.4086 13.6171C14.4086 11.4332 17.9519 9.66071 22.3213 9.66071C26.6907 9.66071 30.234 11.4332 30.234 13.6171C30.234 15.801 26.6907 17.5734 22.3213 17.5734Z" stroke="#222222" strokeWidth="2.37382" strokeLinecap="round" strokeLinejoin="round"/>
<path id="Vector_2" d="M1.7482 5.70424V23.1123C1.7482 25.2962 5.29152 27.0686 9.66094 27.0686C11.4429 27.0686 13.0856 26.7743 14.4086 26.2774M14.4086 26.2774V13.617M14.4086 26.2774C14.4086 28.4613 17.9519 30.2337 22.3213 30.2337C26.6907 30.2337 30.234 28.4613 30.234 26.2774V13.617M17.5737 10.4519V5.70424" stroke="#222222" strokeWidth="2.37382" strokeLinecap="round" strokeLinejoin="round"/>
<path id="Vector_3" d="M9.66078 9.66036C5.29137 9.66036 1.74805 7.8879 1.74805 5.70399C1.74805 3.52007 5.29137 1.74762 9.66078 1.74762C14.0302 1.74762 17.5735 3.52007 17.5735 5.70399C17.5735 7.8879 14.0302 9.66036 9.66078 9.66036Z" stroke="#222222" strokeWidth="2.37382" strokeLinecap="round" strokeLinejoin="round"/>
</g>
</svg>
