<svg width="36" height="36" viewBox="0 0 36 36" fill="none" xmlns="http://www.w3.org/2000/svg">
<g id="octicon:people-16">
<path id="Vector" d="M24.5968 27.2994L24.44 27.3242C24.4714 27.5226 24.4635 27.7252 24.4167 27.9205C24.3698 28.1158 24.285 28.2999 24.167 28.4624C24.0489 28.6249 23.9001 28.7625 23.7289 28.8675C23.5577 28.9725 23.3674 29.0427 23.1691 29.0741C22.9708 29.1056 22.7682 29.0977 22.5729 29.0508C22.3776 29.004 22.1934 28.9191 22.0309 28.8011C21.8685 28.6831 21.7308 28.5342 21.6258 28.363C21.5209 28.1918 21.4507 28.0016 21.4192 27.8032L21.4192 27.8031C21.0758 25.6515 19.9765 23.6928 18.3188 22.2787C16.6612 20.8646 14.5537 20.0879 12.3748 20.0879C10.196 20.0879 8.0885 20.8646 6.43084 22.2787C4.77318 23.6928 3.67393 25.6515 3.33051 27.8031L3.3305 27.8031C3.29891 28.0015 3.22857 28.1917 3.12348 28.3628C3.01839 28.534 2.88062 28.6828 2.71803 28.8007L2.81128 28.9293L2.71803 28.8007C2.55545 28.9186 2.37122 29.0034 2.17589 29.0501C1.98055 29.0968 1.77792 29.1046 1.57957 29.073C1.38122 29.0414 1.19104 28.9711 1.01987 28.866C0.848709 28.7609 0.699921 28.6231 0.582002 28.4606C0.464083 28.298 0.379342 28.1137 0.332619 27.9184C0.285896 27.7231 0.278105 27.5204 0.309691 27.3221C0.621416 25.3805 1.39668 23.5426 2.56976 21.9643C3.74288 20.386 5.27926 19.1138 7.04866 18.2555L7.2563 18.1548L7.08806 17.9968C6.32016 17.2758 5.70836 16.4049 5.29049 15.438C4.87262 14.471 4.65758 13.4286 4.65867 12.3753V12.3751C4.65851 11.0961 4.97626 9.83719 5.58335 8.7115C6.19044 7.5858 7.06782 6.62866 8.13657 5.92617C9.20533 5.22367 10.4319 4.79785 11.7061 4.68701C12.9802 4.57616 14.262 4.78377 15.436 5.29115C16.61 5.79854 17.6395 6.58979 18.4318 7.59373C19.2242 8.59768 19.7546 9.78284 19.9753 11.0426C20.196 12.3024 20.1001 13.5973 19.6962 14.8108C19.2923 16.0243 18.5931 17.1184 17.6615 17.9947L17.4936 18.1526L17.701 18.2533C19.4708 19.1121 21.0075 20.385 22.1806 21.9642C23.3538 23.5433 24.1288 25.3821 24.44 27.3245L24.5968 27.2994ZM24.5968 27.2994C24.2816 25.3317 23.4965 23.4691 22.3081 21.8695C21.1534 20.3151 19.6511 19.0537 17.9221 18.1853M24.5968 27.2994C24.6316 27.5183 24.6228 27.742 24.5711 27.9575C24.5194 28.1731 24.4257 28.3764 24.2955 28.5557C24.1652 28.7351 24.0009 28.887 23.8119 29.0029C23.6229 29.1188 23.4129 29.1963 23.194 29.231C22.975 29.2657 22.7514 29.257 22.5358 29.2052C22.3203 29.1535 22.117 29.0599 21.9376 28.9296C21.7582 28.7993 21.6063 28.635 21.4904 28.446C21.3746 28.257 21.2971 28.0471 21.2623 27.8281C20.9249 25.7138 19.8447 23.7891 18.2158 22.3995C16.5869 21.01 14.5159 20.2467 12.3748 20.2467C10.2338 20.2467 8.16283 21.01 6.53392 22.3995C4.905 23.7891 3.82482 25.7138 3.48734 27.8281L17.9221 18.1853M17.9221 18.1853C17.9079 18.1989 17.8935 18.2125 17.8792 18.2261L17.7703 18.1104L17.8397 17.9675C17.8572 17.976 17.8748 17.9846 17.8923 17.9932C18.7822 17.1193 19.4525 16.0459 19.8469 14.8609C20.2591 13.6224 20.357 12.3009 20.1317 11.0152C19.9065 9.72951 19.3652 8.51995 18.5565 7.49534C17.7478 6.47072 16.6972 5.66319 15.499 5.14536C14.3008 4.62753 12.9927 4.41565 11.6923 4.52878C10.392 4.64191 9.14009 5.07649 8.04934 5.79345C6.95858 6.5104 6.06314 7.48724 5.44356 8.63611C4.82398 9.78497 4.49968 11.0698 4.49984 12.3751L17.9221 18.1853ZM29.6272 20.1839L29.486 20.3394L29.6742 20.4329C31.0245 21.1032 32.2242 22.0412 33.2005 23.1899C34.1767 24.3385 34.9091 25.6738 35.3531 27.1144L35.3533 27.1153C35.4341 27.3722 35.4455 27.6459 35.3863 27.9086C35.3271 28.1714 35.1994 28.4138 35.0163 28.6112C34.8331 28.8087 34.6009 28.9541 34.3434 29.0329C34.0858 29.1116 33.812 29.1208 33.5498 29.0595L33.5496 29.0594C33.2875 28.9984 33.046 28.8694 32.8496 28.6854C32.6531 28.5015 32.5085 28.269 32.4303 28.0115L32.4301 28.0107C32.0187 26.6799 31.2691 25.4787 30.2544 24.5244C29.2398 23.5701 27.9949 22.8954 26.6414 22.5663L26.6411 22.5662C26.3073 22.4856 26.0104 22.295 25.7982 22.0251C25.5859 21.7552 25.4707 21.4217 25.4712 21.0783V21.0781V20.2861V20.286C25.471 20.0014 25.5503 19.7224 25.7001 19.4804C25.8499 19.2384 26.0643 19.0431 26.3191 18.9163C27.0332 18.5623 27.6067 17.9774 27.9464 17.2563C28.2862 16.5353 28.3722 15.7205 28.1904 14.9444C28.0087 14.1683 27.5698 13.4764 26.9453 12.9811C26.3207 12.4859 25.547 12.2163 24.7499 12.2163C24.3444 12.2163 23.9556 12.0552 23.6689 11.7686C23.3822 11.4819 23.2212 11.093 23.2212 10.6876C23.2212 10.2822 23.3822 9.89336 23.6689 9.60668C23.9556 9.32002 24.3443 9.15897 24.7497 9.15894C26.0263 9.15983 27.2751 9.53126 28.3446 10.2281C29.4141 10.925 30.2584 11.9174 30.7748 13.0848C31.2913 14.2522 31.4578 15.5444 31.2541 16.8045C31.0504 18.0647 30.4852 19.2387 29.6272 20.1839ZM12.3784 7.71633C11.758 7.7023 11.1411 7.81236 10.5638 8.04006C9.98647 8.26775 9.46049 8.60848 9.01669 9.04224C8.57289 9.47601 8.22023 9.99407 7.9794 10.566C7.73858 11.1379 7.61444 11.7522 7.61429 12.3728C7.61413 12.9934 7.73796 13.6077 7.9785 14.1798C8.21904 14.7518 8.57144 15.2701 9.01503 15.7041C9.4586 16.138 9.98442 16.479 10.5616 16.707C11.1388 16.935 11.7557 17.0454 12.3761 17.0317C13.5934 17.0047 14.7517 16.5024 15.6032 15.632C16.4547 14.7617 16.9316 13.5927 16.9319 12.3751C16.9322 11.1576 16.4559 9.98828 15.6048 9.11755C14.7538 8.24682 13.5957 7.74386 12.3784 7.71633Z" fill="#C73E00" stroke="white" stroke-width="0.317647"/>
</g>
</svg>
