<svg width="11" height="11" viewBox="0 0 11 11" fill="none" xmlns="http://www.w3.org/2000/svg">
<g id="Arrow">
<path id="Vector" d="M9.67077 4.98541L5.82077 8.84687C5.77494 8.8927 5.72528 8.92524 5.67181 8.94449C5.61834 8.96374 5.56105 8.97321 5.49994 8.97291C5.43882 8.97291 5.38153 8.96344 5.32806 8.94449C5.27459 8.92555 5.22494 8.89301 5.1791 8.84687L1.31764 4.98541C1.2107 4.87846 1.15723 4.74478 1.15723 4.58437C1.15723 4.42395 1.21452 4.28645 1.3291 4.17187C1.44368 4.05728 1.57737 3.99999 1.73014 3.99999C1.88292 3.99999 2.0166 4.05728 2.13118 4.17187L5.49994 7.54062L8.86869 4.17187C8.97563 4.06492 9.10748 4.01145 9.26423 4.01145C9.42098 4.01145 9.55649 4.06874 9.67077 4.18333C9.78535 4.29791 9.84264 4.43159 9.84264 4.58437C9.84264 4.73714 9.78535 4.87083 9.67077 4.98541Z" fill="#222222"/>
</g>
</svg>
